<svg width="90" height="90" viewBox="0 0 90 90" fill="none" xmlns="http://www.w3.org/2000/svg">
<g clip-path="url(#clip0_1144_545)">
<path d="M78.6273 74.9149C73.9905 80.1379 68.2927 84.0937 62.0579 86.6425C57.4074 88.5542 52.5743 89.6296 47.7454 89.9208C47.7259 89.922 47.7064 89.9235 47.6868 89.9247C47.4016 89.9415 47.1165 89.9563 46.8314 89.9676C39.6053 90.2687 32.2319 88.8317 25.3538 85.4852C21.4524 83.5964 17.8041 81.135 14.5452 78.1385C14.5065 78.103 14.4676 78.0677 14.429 78.0321C14.4082 78.0128 14.3873 77.9938 14.3665 77.9745C14.3282 77.9389 14.2895 77.9037 14.2513 77.868C14.1647 77.787 14.0785 77.7057 13.9925 77.6239C14.0306 77.66 14.0695 77.6953 14.1077 77.7313C13.9979 77.6278 13.8892 77.5233 13.7806 77.4188C13.8018 77.4393 13.8228 77.4599 13.8441 77.4803C13.7875 77.4262 13.7313 77.3717 13.6751 77.3173C9.31154 73.094 5.92642 68.097 3.61554 62.6747C1.42881 57.572 0.25906 52.2368 0.0364418 46.9208C-0.280649 39.6589 1.15918 32.2463 4.52668 25.3339C4.65073 25.078 4.77662 24.8229 4.90558 24.5692C4.9179 24.5451 4.93033 24.521 4.94269 24.4969C6.48587 21.4749 8.3774 18.6142 10.5999 15.9794C10.6148 15.9617 10.6289 15.9433 10.6439 15.9257C10.8172 15.7208 10.9938 15.5184 11.1712 15.3163C11.1703 15.3173 11.1702 15.3191 11.1693 15.3202C11.1931 15.2929 11.2156 15.2644 11.2396 15.2372C11.2165 15.2633 11.1942 15.2901 11.1712 15.3163C11.2097 15.2724 11.2478 15.2282 11.2864 15.1844C11.3231 15.1429 11.359 15.1008 11.3958 15.0594C11.4596 14.9879 11.5239 14.9168 11.5882 14.8456C11.547 14.8913 11.5062 14.9374 11.4652 14.9833C11.6069 14.8246 11.7502 14.6679 11.8939 14.5116C11.7915 14.6226 11.6893 14.7336 11.5882 14.8456C11.7143 14.7056 11.8414 14.5667 11.9691 14.4286C16.575 9.44286 22.1667 5.66483 28.2611 3.22741C33.0274 1.31052 37.9807 0.267212 42.9202 0.0428426C50.2731 -0.304323 57.7859 1.14945 64.7816 4.58191C64.9945 4.68586 65.2069 4.79095 65.4183 4.89831C65.4682 4.92378 65.5178 4.94979 65.5677 4.97546C69.1325 6.80269 72.4735 9.11366 75.4808 11.8827C75.5151 11.9142 75.5492 11.9458 75.5833 11.9774C75.6063 11.9987 75.6297 12.0196 75.6527 12.0409C75.748 12.1296 75.8431 12.2188 75.9378 12.3085C75.8615 12.2364 75.7842 12.1652 75.7073 12.0936C75.9169 12.2888 76.1242 12.4858 76.3294 12.6844C76.1994 12.5583 76.0691 12.4328 75.9378 12.3085C76.0743 12.4374 76.2094 12.5677 76.3441 12.6981C80.7593 16.976 84.1691 22.0481 86.4788 27.5497C86.4536 27.4897 86.4301 27.4289 86.4046 27.369C86.4343 27.4384 86.4622 27.5085 86.4915 27.578C86.5576 27.7358 86.6225 27.8941 86.6868 28.0526C86.7852 28.2938 86.882 28.5351 86.9759 28.7772C86.9889 28.811 87.0011 28.845 87.014 28.8788C88.805 33.5288 89.7734 38.3468 89.9671 43.1493C89.973 43.2899 89.9781 43.4305 89.9827 43.5712C89.9886 43.7603 89.993 43.9495 89.9964 44.1385C90.1407 51.3195 88.5686 58.6173 85.1087 65.4042C85.2659 65.0958 85.4202 64.7869 85.5696 64.4764C83.8022 68.1665 81.5233 71.6327 78.7659 74.7606C78.7434 74.7863 78.7212 74.8122 78.6985 74.8378C78.6043 74.9442 78.5097 75.0505 78.4144 75.1561C78.4861 75.0765 78.556 74.9952 78.6273 74.9149ZM62.5677 4.77331C62.4979 4.7731 62.428 4.77428 62.3577 4.77527C62.4279 4.77427 62.4979 4.77311 62.5677 4.77331ZM63.054 4.78406C63.0102 4.78212 62.9662 4.78159 62.9222 4.78015C62.9662 4.78158 63.0102 4.78213 63.054 4.78406ZM62.0296 4.78406C61.9692 4.78647 61.9087 4.78859 61.848 4.79187C61.9087 4.78859 61.9692 4.78648 62.0296 4.78406ZM61.5452 4.81238C61.4599 4.81892 61.3743 4.82468 61.2884 4.83288C61.3743 4.82467 61.4599 4.81893 61.5452 4.81238ZM63.6829 4.83093C63.6364 4.82625 63.59 4.82038 63.5433 4.81628C63.59 4.82037 63.6364 4.82626 63.6829 4.83093ZM60.556 4.9237C60.7481 4.89547 60.9388 4.87174 61.1282 4.85144C60.9388 4.87171 60.7481 4.89549 60.556 4.9237ZM64.2181 4.89831C64.1544 4.88863 64.0908 4.87854 64.0267 4.86999C64.0908 4.87853 64.1544 4.88863 64.2181 4.89831ZM64.6829 4.97937C64.6281 4.9684 64.5731 4.9582 64.5179 4.94812C64.5731 4.95819 64.6281 4.96841 64.6829 4.97937ZM60.2884 4.96472C60.2094 4.97773 60.1305 4.99239 60.0511 5.00671C60.1305 4.99238 60.2094 4.97774 60.2884 4.96472ZM65.1634 5.08679C65.1126 5.07395 65.0612 5.06368 65.0101 5.05163C65.0612 5.06367 65.1126 5.07396 65.1634 5.08679ZM59.7415 5.0653C59.6636 5.08091 59.5854 5.09632 59.5071 5.11316C59.5854 5.09631 59.6636 5.08092 59.7415 5.0653ZM59.2161 5.17956C59.1156 5.203 59.0145 5.2264 58.9134 5.25183C59.0145 5.22639 59.1156 5.20301 59.2161 5.17956ZM65.7357 5.25183C65.6927 5.23803 65.65 5.22303 65.6068 5.20984C65.65 5.22302 65.6927 5.23803 65.7357 5.25183ZM58.0755 5.48327C58.312 5.41229 58.5472 5.34753 58.7806 5.28698C58.5472 5.34751 58.312 5.41231 58.0755 5.48327ZM66.2269 5.42566C66.168 5.40304 66.1095 5.37969 66.0501 5.35827C66.1095 5.37969 66.168 5.40304 66.2269 5.42566ZM66.6634 5.60534C66.6064 5.57995 66.5491 5.55534 66.4915 5.53113C66.5491 5.55533 66.6064 5.57995 66.6634 5.60534ZM57.9027 5.53503C57.7792 5.57327 57.6558 5.61411 57.5316 5.65515C57.6558 5.6141 57.7792 5.57328 57.9027 5.53503ZM68.3763 6.54968C68.0867 6.37379 67.7952 6.19944 67.5003 6.02917C67.2133 5.86348 66.9242 5.70237 66.6351 5.54382C66.9243 5.70254 67.2132 5.86342 67.5003 6.02917L68.3763 6.54968ZM57.3695 5.70886C57.2377 5.75354 57.1056 5.79975 56.973 5.84753C57.1055 5.79974 57.2377 5.75355 57.3695 5.70886ZM67.0863 5.80652C67.043 5.7845 66.9989 5.76434 66.9554 5.74304C66.9989 5.76434 67.043 5.7845 67.0863 5.80652ZM55.0023 6.6571C55.6232 6.37176 56.2369 6.11771 56.8421 5.89538C56.2368 6.11766 55.6232 6.37178 55.0023 6.6571ZM67.9378 6.2987L67.8948 6.27234C67.9486 6.30719 68.0011 6.3438 68.054 6.37976C68.015 6.35323 67.9773 6.32463 67.9378 6.2987ZM68.4222 6.64343C68.3757 6.60834 68.3287 6.5741 68.2816 6.53992C68.3287 6.5741 68.3757 6.60834 68.4222 6.64343ZM54.805 6.7489C54.667 6.81359 54.5286 6.87942 54.39 6.94714C54.5286 6.87942 54.6671 6.81359 54.805 6.7489ZM68.7845 6.93152C68.7487 6.90148 68.7123 6.87211 68.6761 6.84265C68.7123 6.87211 68.7487 6.90148 68.7845 6.93152ZM70.6566 35.8788C72.4822 29.9291 73.3898 24.3837 73.3343 19.6688C67.8282 13.4974 60.5631 9.43315 52.762 7.80261C53.2807 7.51102 53.7956 7.23947 54.306 6.98816C52.6718 7.79275 50.9915 8.80548 49.2884 10.0116C49.7458 9.68757 50.2019 9.37779 50.6556 9.08191C56.9908 14.8746 63.1248 22.6111 68.2884 31.5546L68.8987 32.6249C69.5076 33.7071 70.0931 34.7927 70.6566 35.8788ZM10.4984 60.9296C12.0976 51.8 15.954 41.5308 21.7132 31.5555L22.3353 30.4921C27.9709 20.9772 34.6919 12.8915 41.5452 7.15417C29.9804 8.22003 19.0763 14.5572 12.5931 25.1571L12.0911 25.9999C5.6787 37.1066 5.51175 50.1046 10.4984 60.9296ZM69.1507 7.25476C69.117 7.2233 69.0823 7.1929 69.0482 7.16199C69.0823 7.1929 69.117 7.2233 69.1507 7.25476ZM69.5677 7.6698C69.5353 7.63567 69.5038 7.60084 69.471 7.56726C69.5038 7.60084 69.5353 7.63567 69.5677 7.6698ZM69.8919 8.0282C69.8639 7.99559 69.8363 7.9627 69.8079 7.93054C69.8363 7.9627 69.8639 7.99559 69.8919 8.0282ZM70.2337 8.44812C70.1959 8.39919 70.1579 8.35066 70.1195 8.30261C70.1579 8.35066 70.1959 8.39919 70.2337 8.44812ZM70.5091 8.82019C70.4758 8.77304 70.4414 8.72695 70.4075 8.68054C70.4414 8.72695 70.4758 8.77305 70.5091 8.82019ZM70.8987 9.41394C70.854 9.34121 70.81 9.26836 70.764 9.19714C70.81 9.26836 70.854 9.34121 70.8987 9.41394ZM71.1146 9.77722C71.09 9.73391 71.0664 9.69015 71.0413 9.64734C71.0664 9.69015 71.09 9.73391 71.1146 9.77722ZM71.3773 10.2645C71.3472 10.2059 71.3172 10.1475 71.2864 10.0897C71.3172 10.1475 71.3472 10.2059 71.3773 10.2645ZM47.1624 11.6092C47.8076 11.0974 48.4509 10.6118 49.0911 10.1532C48.4509 10.6117 47.8077 11.0975 47.1624 11.6092ZM71.6116 10.744C71.5774 10.6701 71.5424 10.597 71.5071 10.5243C71.5424 10.597 71.5774 10.6701 71.6116 10.744ZM71.8089 11.1874C71.7944 11.1529 71.7787 11.119 71.764 11.0848C71.7787 11.119 71.7944 11.1529 71.8089 11.1874ZM20.0823 51.8466C20.8449 49.6055 21.7326 47.3164 22.7435 45.0008C24.1764 48.283 25.8554 51.6191 27.7757 54.9452L28.3626 55.9471C33.3791 64.4155 39.2131 71.5054 45.0013 76.5868C50.7895 71.5054 56.6235 64.4155 61.64 55.9471L62.2259 54.9452C64.1464 51.6187 65.8271 48.2834 67.2601 45.0009C65.9719 42.0499 64.4838 39.0558 62.8011 36.0643L62.2269 35.0546C57.082 26.1434 51.0172 18.6944 45.0023 13.4139C45.2255 13.218 45.4492 13.0257 45.6722 12.8358C39.4387 18.1444 33.1121 25.8126 27.7757 35.0555L27.2005 36.0643C24.1974 41.4031 21.8167 46.7496 20.0823 51.8466ZM72.265 12.413C72.2425 12.3443 72.2208 12.2757 72.1976 12.2079C72.2208 12.2757 72.2425 12.3443 72.265 12.413ZM72.431 12.9471C72.4093 12.8731 72.387 12.7996 72.3646 12.7264C72.387 12.7996 72.4093 12.8731 72.431 12.9471ZM72.5833 13.4999C72.5627 13.4203 72.5414 13.3412 72.5198 13.2626C72.5414 13.3412 72.5627 13.4203 72.5833 13.4999ZM72.9964 15.494C72.9802 15.3926 72.965 15.2915 72.9476 15.1913C72.965 15.2915 72.9802 15.3926 72.9964 15.494ZM73.0853 16.0907C73.0712 15.9859 73.0557 15.8818 73.0404 15.7782C73.0557 15.8818 73.0712 15.9859 73.0853 16.0907ZM73.1575 16.6825C73.147 16.5876 73.1358 16.4933 73.1243 16.3993C73.1358 16.4933 73.147 16.5876 73.1575 16.6825ZM73.2835 18.1893C73.2787 18.1054 73.2753 18.0217 73.2698 17.9384C73.2753 18.0217 73.2787 18.1054 73.2835 18.1893ZM73.3167 18.9012C73.313 18.7937 73.3098 18.6866 73.305 18.58C73.3098 18.6866 73.313 18.7937 73.3167 18.9012ZM73.3333 19.5184C73.3321 19.4433 73.3301 19.3685 73.3284 19.2938C73.3301 19.3685 73.3321 19.4433 73.3333 19.5184ZM6.02961 22.4999C6.21096 22.1858 6.39658 21.8753 6.5843 21.5673C6.39659 21.8753 6.21094 22.1858 6.02961 22.4999C5.85134 22.8086 5.67815 23.1192 5.50812 23.4305C5.67824 23.1194 5.85136 22.8086 6.02961 22.4999ZM48.4573 82.8446C60.0216 81.7782 70.9257 75.4421 77.4085 64.8427L77.9095 63.9999C84.3217 52.8935 84.4896 39.8951 79.5032 29.0702C77.9041 38.1999 74.0478 48.4697 68.2884 58.4452C62.5292 68.4203 55.5642 76.8949 48.4573 82.8446ZM70.3538 36.8426C70.4248 36.6218 70.4944 36.4014 70.5628 36.1815C70.4944 36.4014 70.4248 36.6218 70.3538 36.8426ZM70.0179 37.8661C70.1003 37.621 70.1817 37.3766 70.2611 37.1327C70.1817 37.3766 70.1003 37.621 70.0179 37.8661ZM69.1478 40.328C69.4101 39.6214 69.6596 38.9185 69.8978 38.2206C69.6596 38.9185 69.4102 39.6214 69.1478 40.328ZM68.7288 41.4325C68.8278 41.1766 68.924 40.9208 69.0198 40.6659C68.924 40.9208 68.8278 41.1766 68.7288 41.4325ZM68.303 42.5087C68.4145 42.2314 68.5243 41.9548 68.6321 41.6786C68.5243 41.9548 68.4145 42.2314 68.303 42.5087ZM67.8685 43.5702C67.9701 43.3262 68.0713 43.083 68.1702 42.8397C68.0713 43.083 67.9701 43.3262 67.8685 43.5702ZM67.3694 44.746C67.4854 44.4782 67.6006 44.2112 67.7132 43.9442C67.6006 44.2112 67.4854 44.4782 67.3694 44.746ZM16.68 70.9032C16.6745 70.7141 16.6696 70.5237 16.6673 70.3319C22.1734 76.5028 29.4378 80.5687 37.2386 82.1991C37.935 81.8076 38.6377 81.3798 39.346 80.9178C33.0107 75.1251 26.8768 67.3887 21.7132 58.4452L21.1038 57.3749C20.4953 56.2932 19.9102 55.2075 19.347 54.1219C17.4469 60.314 16.5406 66.0675 16.68 70.9032ZM83.4485 68.3817C83.6256 68.0903 83.8006 67.7967 83.972 67.4999C84.1461 67.1982 84.3154 66.8947 84.4818 66.5907C84.3153 66.8947 84.1462 67.1982 83.972 67.4999L83.4485 68.3817ZM16.72 71.8368C16.7253 71.9266 16.7306 72.0162 16.7366 72.1053C16.7306 72.0162 16.7253 71.9266 16.72 71.8368ZM16.8167 73.0477C16.8 72.882 16.7838 72.7151 16.7698 72.5467C16.7838 72.7151 16.8 72.882 16.8167 73.0477ZM16.9144 73.8807C16.9325 74.0168 16.9508 74.1519 16.971 74.286C16.9509 74.1519 16.9325 74.0168 16.9144 73.8807ZM17.0159 74.5721C17.0311 74.6654 17.0466 74.7582 17.0628 74.8505C17.0466 74.7582 17.0311 74.6654 17.0159 74.5721ZM17.2044 75.5819C17.1713 75.4243 17.1397 75.2651 17.1097 75.1044C17.1398 75.2651 17.1713 75.4243 17.2044 75.5819ZM17.4085 76.4608C17.4419 76.5906 17.4764 76.7192 17.512 76.8466C17.4764 76.7192 17.4419 76.5906 17.4085 76.4608ZM44.3177 77.1786C44.0672 77.3918 43.8168 77.601 43.5667 77.8065C43.8168 77.601 44.0672 77.3918 44.3177 77.1786ZM17.5491 76.9774C17.5853 77.103 17.623 77.2273 17.6614 77.3505C17.623 77.2273 17.5853 77.103 17.5491 76.9774ZM17.7054 77.4882C17.7425 77.6037 17.7796 77.7185 17.8187 77.8319C17.7796 77.7185 17.7425 77.6037 17.7054 77.4882ZM18.0901 78.5575C18.0283 78.4031 17.9682 78.2467 17.9105 78.0878C17.9683 78.2467 18.0283 78.4031 18.0901 78.5575ZM42.2318 78.868C42.3086 78.809 42.3844 78.7482 42.4612 78.6884C42.3844 78.7482 42.3085 78.8089 42.2318 78.868ZM18.181 78.7821C18.2121 78.8563 18.2445 78.9297 18.2767 79.0028C18.2446 78.9297 18.2121 78.8563 18.181 78.7821ZM41.5071 79.4149C41.6385 79.3177 41.7692 79.2184 41.9007 79.119C41.7692 79.2185 41.6384 79.3177 41.5071 79.4149ZM18.4007 79.2782C18.4284 79.3378 18.4563 79.3971 18.4847 79.4559C18.4563 79.3971 18.4284 79.3378 18.4007 79.2782ZM40.8626 79.8837C40.9801 79.7998 41.0965 79.7135 41.2142 79.6278C41.0965 79.7135 40.98 79.7998 40.8626 79.8837ZM18.6624 79.8104C18.6791 79.8425 18.6963 79.8743 18.7132 79.9061C18.6963 79.8743 18.6791 79.8425 18.6624 79.8104ZM40.1312 80.3954C40.2592 80.3077 40.3866 80.2177 40.515 80.1278C40.3866 80.2177 40.2592 80.3077 40.1312 80.3954ZM18.5364 81.3983C17.9924 81.0037 17.4596 80.5986 16.9378 80.1835C17.4595 80.5987 17.9925 81.0037 18.5364 81.3983ZM18.888 80.2245C18.9158 80.2734 18.9427 80.3227 18.971 80.371C18.9427 80.3227 18.9158 80.2734 18.888 80.2245ZM39.5335 80.7958C39.6305 80.7318 39.7273 80.6667 39.8245 80.6014C39.7273 80.6667 39.6305 80.7318 39.5335 80.7958ZM19.2132 80.7665C19.248 80.8207 19.2851 80.8732 19.3206 80.9266C19.2851 80.8732 19.248 80.8207 19.2132 80.7665ZM19.4954 81.1844C19.5311 81.235 19.5684 81.2842 19.6048 81.3339C19.5684 81.2842 19.5311 81.235 19.4954 81.1844ZM19.7864 81.576C19.8232 81.6234 19.8604 81.6702 19.8978 81.7167C19.8604 81.6702 19.8232 81.6234 19.7864 81.576ZM20.0882 81.9452C20.13 81.9941 20.1707 82.0437 20.2132 82.0917C20.1707 82.0437 20.1299 81.9941 20.0882 81.9452ZM36.886 82.3954C36.954 82.3582 37.0221 82.3209 37.0901 82.2831C37.0221 82.3209 36.954 82.3582 36.886 82.3954ZM20.43 82.327C20.4644 82.3633 20.4976 82.4007 20.5325 82.4364C20.4976 82.4007 20.4644 82.3633 20.43 82.327ZM36.305 82.705C36.3704 82.6709 36.4357 82.6361 36.5013 82.6014C36.4357 82.6361 36.3704 82.6709 36.305 82.705ZM20.8499 82.745C20.8926 82.7848 20.9364 82.8232 20.9798 82.8622C20.9364 82.8232 20.8926 82.7848 20.8499 82.745ZM21.222 83.0731C21.255 83.1007 21.2882 83.128 21.3216 83.1551C21.2882 83.128 21.255 83.1007 21.222 83.0731ZM34.9193 83.3807C34.9896 83.3487 35.0607 83.3179 35.1312 83.285C35.0607 83.3179 34.9896 83.3487 34.9193 83.3807ZM21.5911 83.3651C21.6327 83.3964 21.674 83.4282 21.7161 83.4589C21.674 83.4282 21.6327 83.3964 21.5911 83.3651ZM22.5003 83.9716C22.1939 83.7946 21.8908 83.6135 21.5901 83.4305C21.8907 83.6135 22.194 83.7947 22.5003 83.9716C22.802 84.1457 23.1054 84.315 23.4095 84.4813C23.1055 84.3149 22.802 84.1457 22.5003 83.9716ZM34.3411 83.6366C34.4084 83.6079 34.4759 83.5792 34.5433 83.5497C34.4759 83.5792 34.4084 83.6079 34.3411 83.6366ZM21.9847 83.6454C22.0244 83.6721 22.0637 83.6994 22.1038 83.7255C22.0637 83.6994 22.0244 83.6721 21.9847 83.6454ZM33.7571 83.8778C33.8202 83.8527 33.8834 83.8274 33.9466 83.8016C33.8834 83.8274 33.8202 83.8527 33.7571 83.8778ZM33.1468 84.1122C33.2259 84.0832 33.3047 84.0524 33.3841 84.0223C33.3047 84.0524 33.2259 84.0832 33.1468 84.1122ZM22.9017 84.1874C22.9533 84.2138 23.0059 84.2382 23.0579 84.2635C23.0059 84.2382 22.9533 84.2138 22.9017 84.1874ZM32.6116 84.3016C32.633 84.2944 32.6538 84.2855 32.6751 84.2782C32.6538 84.2855 32.633 84.2944 32.6116 84.3016ZM23.3382 84.3954C23.3884 84.4177 23.4389 84.4394 23.4896 84.4608C23.4389 84.4394 23.3884 84.4177 23.3382 84.3954ZM31.8831 84.5301C31.9376 84.5139 31.9926 84.4991 32.0472 84.4823C31.9926 84.4991 31.9376 84.5139 31.8831 84.5301ZM23.7767 84.576C23.8267 84.5952 23.8767 84.6143 23.9271 84.6327C23.8767 84.6143 23.8267 84.5952 23.7767 84.576ZM31.3138 84.6913C31.3722 84.6758 31.4309 84.6605 31.4896 84.6444C31.4309 84.6605 31.3722 84.6758 31.3138 84.6913ZM24.2659 84.7489C24.3008 84.7601 24.3354 84.7723 24.3704 84.7831C24.3354 84.7723 24.3008 84.7601 24.2659 84.7489ZM30.7689 84.827C30.8066 84.8183 30.8443 84.8087 30.8821 84.7997C30.8443 84.8087 30.8066 84.8183 30.7689 84.827ZM24.8314 84.913C24.8475 84.9171 24.864 84.9197 24.8802 84.9237C24.864 84.9197 24.8475 84.9171 24.8314 84.913ZM30.1917 84.951C30.2473 84.9401 30.3029 84.9284 30.3587 84.9169C30.3029 84.9284 30.2473 84.9401 30.1917 84.951ZM25.2796 85.0135C25.3373 85.0253 25.3953 85.0359 25.4534 85.0467C25.3953 85.0359 25.3373 85.0253 25.2796 85.0135ZM25.7454 85.0975C25.8151 85.1084 25.8851 85.1183 25.9554 85.1278C25.8851 85.1183 25.8151 85.1084 25.7454 85.0975ZM28.9749 85.1395C29.0285 85.1334 29.0823 85.1277 29.136 85.121C29.0823 85.1277 29.0285 85.1334 28.9749 85.1395ZM26.2171 85.16C26.2895 85.168 26.362 85.1759 26.4349 85.1825C26.362 85.1759 26.2895 85.168 26.2171 85.16ZM28.4485 85.1903C28.4992 85.1864 28.55 85.1821 28.6009 85.1776C28.55 85.1821 28.4992 85.1864 28.4485 85.1903ZM26.847 85.2118C26.8636 85.2127 26.8802 85.2149 26.8968 85.2157C26.8802 85.2149 26.8636 85.2127 26.847 85.2118ZM27.9241 85.2196C27.9687 85.218 28.0132 85.2158 28.0579 85.2137C28.0132 85.2158 27.9687 85.218 27.9241 85.2196ZM27.4876 85.2274C27.4625 85.2274 27.4375 85.2285 27.4124 85.2284C27.4375 85.2285 27.4625 85.2274 27.4876 85.2274ZM74.6995 11.1825C74.4615 10.9739 74.221 10.7675 73.9779 10.5634C74.221 10.7675 74.4615 10.9739 74.6995 11.1825ZM47.0599 11.6903C46.85 11.8576 46.6403 12.0282 46.43 12.201C46.6403 12.0282 46.85 11.8577 47.0599 11.6903ZM46.3431 12.2743C46.1368 12.4446 45.9295 12.6164 45.723 12.7919C45.9295 12.6164 46.1368 12.4446 46.3431 12.2743ZM20.0687 51.8866C19.9453 52.2499 19.8251 52.6119 19.7083 52.9725C19.8251 52.6119 19.9453 52.2499 20.0687 51.8866ZM19.6702 53.0926C19.5636 53.4236 19.4597 53.7533 19.3587 54.0819C19.4597 53.7533 19.5636 53.4236 19.6702 53.0926ZM16.681 70.9559C16.6862 71.1277 16.6926 71.2982 16.7005 71.4676C16.6926 71.2982 16.6862 71.1277 16.681 70.9559ZM16.8392 73.2674C16.8565 73.4256 16.875 73.5825 16.8948 73.7382C16.875 73.5825 16.8565 73.4256 16.8392 73.2674ZM17.2816 75.9383C17.3119 76.0711 17.3437 76.2025 17.3763 76.3329C17.3437 76.2025 17.3119 76.0711 17.2816 75.9383ZM17.2816 75.9383C17.2546 75.8205 17.2296 75.7016 17.2044 75.5819C17.2296 75.7016 17.2546 75.8205 17.2816 75.9383ZM42.9017 78.3446C43.1232 78.1684 43.3448 77.9889 43.5667 77.8065C43.3448 77.9889 43.1232 78.1683 42.9017 78.3446Z" fill="black"/>
</g>
<defs>
<clipPath id="clip0_1144_545">
<rect width="90" height="90" fill="white" transform="translate(90 89.9995) rotate(-180)"/>
</clipPath>
</defs>
</svg>

