<svg width="375" height="82" viewBox="0 0 375 82" fill="none" xmlns="http://www.w3.org/2000/svg">
<g clip-path="url(#clip0_1845_56)">
<path d="M357.297 67.9158C345.928 67.9158 339.653 62.1576 339.358 53.2249H348.955C349.176 58.3187 352.425 60.5335 357.223 60.5335C362.243 60.5335 364.975 58.1711 364.975 54.5537C364.975 51.3793 362.982 49.4599 357.962 49.4599H353.532C345.042 49.4599 340.096 44.809 340.096 37.9434C340.096 30.1919 346.371 24.8027 357.002 24.8027C367.928 24.8027 373.908 30.561 374.203 39.1984H364.68C364.458 34.6213 361.948 32.1851 357.002 32.1851C352.572 32.1851 349.841 34.2522 349.841 37.5743C349.841 40.601 352.129 42.0775 355.894 42.0775H360.767C370.512 42.0775 374.941 47.5405 374.941 54.1846C374.941 62.2314 368.592 67.9158 357.297 67.9158Z" fill="black"/>
<path d="M316.115 67.9147C307.699 67.9147 302.236 62.3041 302.236 51.5259V26.0566H311.538V50.4185C311.538 57.6532 314.639 60.4585 319.216 60.4585C323.94 60.4585 328.37 57.4318 328.37 49.3111V26.0566H337.672V66.6597H328.518V60.4585H328.37C325.934 65.4786 321.504 67.9147 316.115 67.9147Z" fill="black"/>
<path d="M259.453 81.4256V26.0577H268.681V29.0107C268.681 30.4872 268.681 31.7422 268.607 33.1448H268.755C271.191 27.9772 276.137 24.8027 282.338 24.8027C291.788 24.8027 300.425 32.2589 300.425 46.3593C300.425 60.4596 291.788 67.9158 282.338 67.9158C276.137 67.9158 271.191 64.7414 268.755 59.5738H268.607C268.681 61.1241 268.681 62.4529 268.681 63.9294V81.4256H259.453ZM268.681 46.3593C268.681 54.9228 272.741 60.5335 279.533 60.5335C286.399 60.5335 290.459 54.9228 290.459 46.3593C290.459 37.7957 286.399 32.1851 279.533 32.1851C272.741 32.1851 268.681 37.7957 268.681 46.3593Z" fill="black"/>
<path d="M196.979 66.6608V26.0577H206.133V32.0375H206.281C208.422 28.051 212.261 24.8027 217.945 24.8027C223.63 24.8027 227.912 27.7557 229.905 33.071H230.053C232.341 27.9772 236.697 24.8027 242.676 24.8027C250.649 24.8027 255.965 30.4872 255.965 40.3796V66.6608H246.663V41.3393C246.663 35.0642 243.858 32.2589 239.576 32.2589C235.146 32.2589 231.16 35.5072 231.16 42.6681V66.6608H221.784V41.3393C221.784 35.0642 218.979 32.2589 214.771 32.2589C210.268 32.2589 206.281 35.581 206.281 42.6681V66.6608H196.979Z" fill="black"/>
<path d="M156.545 81.4245V73.8206H168.062L172.048 64.445L156.545 26.0566H166.659L176.847 53.0762H176.995L187.256 26.0566H197.222L176.183 78.3239C175.37 80.391 173.82 81.4245 171.605 81.4245H156.545Z" fill="black"/>
<path d="M146.443 66.6605V14.0039H155.744V66.6605H146.443Z" fill="black"/>
<path d="M119.544 67.9152C105.37 67.9152 94.001 58.3919 94.001 40.8218C94.001 23.2518 105.37 13.7285 119.544 13.7285C133.792 13.7285 145.087 23.2518 145.087 40.8218C145.087 58.3919 133.792 67.9152 119.544 67.9152ZM104.336 40.8218C104.336 53.8887 110.833 60.016 119.544 60.016C128.255 60.016 134.752 53.8887 134.752 40.8218C134.752 27.755 128.255 21.6277 119.544 21.6277C110.833 21.6277 104.336 27.755 104.336 40.8218Z" fill="black"/>
<path d="M73.0415 66.582C67.7811 73.1883 60.7515 77.8213 53.0425 80.1885C53.7981 79.9564 54.548 79.704 55.2896 79.4287C51.8839 80.6998 48.3824 81.4885 44.8726 81.8193C46.981 81.6175 49.0685 81.2522 51.1157 80.7305C41.124 83.2754 30.169 82.0756 20.5317 76.5215C20.5226 76.5163 20.5135 76.5111 20.5044 76.5059C20.5035 76.5053 20.5023 76.5044 20.5015 76.5039C12.2085 71.7152 6.22247 64.4658 2.93115 56.2109C1.06483 51.5568 0.111654 46.7073 0.011234 41.8887C-0.128048 35.7228 1.12385 29.4604 3.89307 23.5791C5.74562 19.6235 8.23899 15.9439 11.3267 12.708C11.3929 12.6384 11.4592 12.569 11.5259 12.5C11.6486 12.3729 11.7718 12.2464 11.896 12.1211C11.9508 12.0658 12.006 12.011 12.061 11.956C15.4063 8.61868 19.2581 5.9382 23.4175 3.96777C23.5355 3.91156 23.6536 3.85576 23.772 3.80078C23.8578 3.76111 23.9437 3.72167 24.0298 3.68261C29.5089 1.18292 35.3056 -0.00986255 41.0386 0.000972982C41.0929 0.00097269 41.1473 0.00173327 41.2017 0.00194956C41.4068 0.00315401 41.6119 0.00548155 41.8169 0.00976211C47.0024 0.108364 52.2244 1.194 57.2017 3.34277C57.321 3.39401 57.4402 3.44566 57.5591 3.49804C57.657 3.5414 57.7554 3.58374 57.853 3.62793C62.7269 5.82084 67.203 8.97558 70.9653 13.0107C71.0459 13.097 71.1248 13.1847 71.2046 13.2715C71.208 13.2752 71.2119 13.2785 71.2153 13.2822C71.234 13.3026 71.2523 13.3233 71.271 13.3437C71.3494 13.4297 71.4277 13.5158 71.5054 13.6025C74.3349 16.7518 76.6237 20.2885 78.3335 24.0664C78.3203 24.0372 78.3077 24.0077 78.2944 23.9785C78.3416 24.0815 78.3879 24.1848 78.4341 24.2881C78.4685 24.3653 78.5037 24.4421 78.5376 24.5195C80.6354 29.2824 81.7522 34.2755 81.9605 39.25C81.9677 39.4166 81.9738 39.5832 81.979 39.75C81.9824 39.8656 81.9863 39.9811 81.9888 40.0967C82.156 47.3559 80.3982 54.751 76.5024 61.499L75.9878 62.3662C76.162 62.0805 76.3342 61.7924 76.5024 61.501C76.8553 60.8898 77.1913 60.2735 77.5093 59.6523C76.1047 62.4081 74.3823 65.0179 72.3579 67.4209C72.5895 67.1454 72.8163 66.8648 73.0415 66.582ZM57.0513 4.35644C56.9412 4.35563 56.8305 4.3569 56.7192 4.35937C56.8305 4.35688 56.9412 4.35565 57.0513 4.35644ZM58.1401 4.4209C57.8065 4.38318 57.4667 4.36214 57.1206 4.35742C57.4666 4.36209 57.8065 4.38324 58.1401 4.4209ZM56.6138 4.3623C56.4975 4.36595 56.3807 4.37076 56.2632 4.37793C56.3807 4.37074 56.4975 4.36597 56.6138 4.3623ZM54.5786 4.59179C55.1349 4.48611 55.6799 4.41568 56.2124 4.38086C55.6798 4.4156 55.1349 4.48618 54.5786 4.59179ZM58.5493 4.47558C58.4667 4.46262 58.3838 4.45029 58.3003 4.43945C58.3838 4.45028 58.4667 4.46264 58.5493 4.47558ZM58.9546 4.54785C58.8837 4.53346 58.8123 4.52057 58.7407 4.50781C58.8123 4.52056 58.8837 4.53347 58.9546 4.54785ZM59.5054 4.67969C59.6681 4.72364 59.8289 4.77206 59.9878 4.82519C59.8288 4.77204 59.6681 4.72367 59.5054 4.67969ZM40.9937 69.7852C46.2693 65.1555 51.5865 58.6933 56.1587 50.9746L56.6929 50.0615C58.4426 47.0307 59.9733 43.9917 61.2788 41.001C60.1051 38.3121 58.7496 35.5842 57.2163 32.8584L56.6929 31.9385C52.007 23.8221 46.4837 17.0369 41.0054 12.2266C42.7359 10.7076 44.4609 9.38478 46.1548 8.28027C51.925 13.5572 57.5123 20.6038 62.2153 28.75L62.771 29.7246C63.326 30.7112 63.8599 31.7012 64.3735 32.6914C66.0368 27.2703 66.863 22.2175 66.812 17.9219C61.7972 12.3009 55.1805 8.5994 48.0757 7.11328C50.3262 5.84852 52.4984 4.99519 54.5239 4.60254C45.6813 6.31542 34.0421 16.8151 25.3091 31.9414L24.7856 32.8613C18.3949 44.2227 15.0905 55.6191 15.1899 64.0791C20.207 69.7013 26.8274 73.4033 33.9351 74.8877C34.5682 74.5316 35.2071 74.1427 35.8511 73.7227C30.079 68.4452 24.4911 61.3957 19.7866 53.2471L19.231 52.2725C18.6767 51.2872 18.1434 50.2984 17.6304 49.3096C18.4573 46.6153 19.4913 43.8303 20.7261 41.0019C22.0311 43.9912 23.5603 47.0294 25.3091 50.0586L25.8433 50.9717C30.4138 58.6875 35.7298 65.1471 41.0034 69.7764C41.0001 69.7792 40.9969 69.7823 40.9937 69.7852ZM60.3814 4.96679C60.3059 4.93728 60.2302 4.90819 60.1538 4.88086C60.2302 4.90818 60.3059 4.93729 60.3814 4.96679ZM60.7544 5.12207C60.6852 5.09102 60.6155 5.06135 60.5454 5.03222C60.6155 5.06133 60.6852 5.09103 60.7544 5.12207ZM61.1323 5.30273C61.0772 5.27453 61.021 5.24859 60.9653 5.22168C61.021 5.24858 61.0772 5.27454 61.1323 5.30273ZM61.5132 5.50879L61.4819 5.49121C61.4363 5.46499 61.3893 5.4413 61.3433 5.41601C61.3946 5.44417 61.4468 5.47167 61.4976 5.50097C61.5756 5.54606 61.6517 5.5941 61.728 5.6416L61.5132 5.50879ZM61.896 5.74512L61.8306 5.70508C61.9016 5.75078 61.971 5.79886 62.0405 5.84668C61.992 5.81332 61.9453 5.77745 61.896 5.74512ZM62.3608 6.07812C62.3042 6.035 62.2477 5.99183 62.1899 5.95019C62.2477 5.99182 62.3042 6.03501 62.3608 6.07812ZM62.6909 6.3418C62.6395 6.29831 62.5871 6.25605 62.5347 6.21387C62.5871 6.25604 62.6395 6.29832 62.6909 6.3418ZM9.56983 55.5137C11.0267 47.1965 14.54 37.8406 19.7866 28.7529L20.353 27.7852C25.487 19.1169 31.6098 11.7502 37.853 6.52343C27.3177 7.49441 17.3841 13.268 11.478 22.9248L11.021 23.6924C5.17938 33.8107 5.02715 45.652 9.56983 55.5137ZM63.4058 7.02051C63.3678 6.98018 63.3311 6.93891 63.2925 6.89941C63.331 6.93891 63.3679 6.98018 63.4058 7.02051ZM63.729 7.38379C63.681 7.32684 63.6327 7.27035 63.5835 7.21484C63.6327 7.27034 63.681 7.32684 63.729 7.38379ZM64.0024 7.72168C63.9522 7.65622 63.9008 7.59206 63.8491 7.52832C63.9008 7.59206 63.9522 7.65623 64.0024 7.72168ZM64.2554 8.0664C64.2079 7.9986 64.1587 7.93236 64.1099 7.86621C64.1587 7.93235 64.2079 7.99861 64.2554 8.0664ZM64.5933 8.58301C64.5353 8.48891 64.4767 8.39599 64.4165 8.30469C64.4767 8.39599 64.5353 8.48892 64.5933 8.58301ZM64.8413 9.00683C64.7991 8.93084 64.758 8.85463 64.7144 8.78027C64.758 8.85463 64.7991 8.93084 64.8413 9.00683ZM65.0601 9.41894C65.0155 9.33075 64.9706 9.24341 64.9243 9.15723C64.9706 9.2434 65.0155 9.33076 65.0601 9.41894ZM65.2524 9.81543C65.212 9.72756 65.1705 9.64072 65.1284 9.55469C65.1705 9.64071 65.212 9.72756 65.2524 9.81543ZM65.436 10.2314C65.4067 10.1614 65.3755 10.0924 65.3452 10.0234C65.3755 10.0924 65.4067 10.1614 65.436 10.2314ZM65.7593 11.0781C65.6822 10.8553 65.5988 10.6381 65.5132 10.4248C65.5988 10.6381 65.6822 10.8554 65.7593 11.0781ZM65.9976 11.8301C65.9714 11.7401 65.9439 11.6511 65.9165 11.5625C65.9439 11.6511 65.9714 11.7401 65.9976 11.8301ZM66.1245 12.291C66.1087 12.2304 66.092 12.1703 66.0757 12.1104C66.092 12.1703 66.1087 12.2304 66.1245 12.291ZM66.4468 13.7734C66.3755 13.3709 66.2928 12.979 66.2007 12.5977C66.2928 12.9789 66.3755 13.3709 66.4468 13.7734ZM66.5845 14.6621C66.5719 14.5688 66.559 14.4761 66.5454 14.3838C66.559 14.476 66.5719 14.5688 66.5845 14.6621ZM66.6538 15.2227C66.6443 15.1363 66.633 15.0504 66.6226 14.9648C66.633 15.0504 66.6443 15.1363 66.6538 15.2227ZM66.7817 16.8662C66.7623 16.4564 66.7343 16.0543 66.6978 15.6602C66.7343 16.0543 66.7623 16.4564 66.7817 16.8662ZM66.812 17.8398C66.8104 17.7286 66.807 17.618 66.8042 17.5078C66.807 17.618 66.8104 17.7286 66.812 17.8398ZM44.1499 75.4785C54.6846 74.507 64.6173 68.7342 70.523 59.0781L70.98 58.3105C76.8212 48.1927 76.9744 36.3517 72.4321 26.4902C70.9754 34.8073 67.4618 44.1625 62.2153 53.25C56.9689 62.3374 50.624 70.0583 44.1499 75.4785ZM64.062 33.6807C63.7357 34.6918 63.3806 35.7147 62.9976 36.7471C63.3809 35.7148 63.7355 34.6918 64.062 33.6807ZM62.6548 37.6523C62.7206 37.4816 62.7849 37.3109 62.8491 37.1406C62.7849 37.3109 62.7205 37.4816 62.6548 37.6523ZM62.2769 38.6143C62.329 38.4839 62.3809 38.3537 62.4321 38.2236C62.3809 38.3537 62.329 38.4839 62.2769 38.6143ZM61.8823 39.5811C61.945 39.43 62.0083 39.2796 62.0698 39.1289C62.0084 39.2797 61.945 39.43 61.8823 39.5811ZM1.16065 50.6592C1.14434 50.592 1.12974 50.5243 1.11377 50.457C1.12973 50.5243 1.14435 50.592 1.16065 50.6592ZM15.1909 64.1631C15.1924 64.2674 15.1942 64.3712 15.1968 64.4746C15.1942 64.3712 15.1924 64.2674 15.1909 64.1631ZM15.2065 64.7852C15.2104 64.8937 15.2143 65.0018 15.2192 65.1094C15.2143 65.0018 15.2104 64.8937 15.2065 64.7852ZM15.353 66.8213C15.3643 66.9221 15.3767 67.0223 15.3892 67.1221C15.3767 67.0223 15.3643 66.9221 15.353 66.8213ZM15.4282 67.4209C15.4362 67.4784 15.4443 67.5357 15.4526 67.5928C15.4443 67.5357 15.4362 67.4784 15.4282 67.4209ZM15.5142 67.9834C15.5235 68.0398 15.5318 68.0963 15.5415 68.1523C15.5318 68.0963 15.5235 68.0398 15.5142 67.9834ZM15.6196 68.5723C15.6284 68.6172 15.636 68.6623 15.645 68.707C15.636 68.6623 15.6284 68.6172 15.6196 68.5723ZM15.7495 69.1924C15.769 69.2773 15.7896 69.3615 15.8101 69.4453C15.7896 69.3615 15.7689 69.2773 15.7495 69.1924ZM15.8716 69.6904C15.895 69.7809 15.9192 69.8707 15.9438 69.96C15.9192 69.8707 15.895 69.7809 15.8716 69.6904ZM16.0122 70.1992C16.033 70.2703 16.0541 70.3409 16.0757 70.4111C16.0541 70.3409 16.033 70.2703 16.0122 70.1992ZM39.7505 70.8418C39.9504 70.677 40.1509 70.51 40.3511 70.3398C40.1509 70.51 39.9504 70.677 39.7505 70.8418ZM20.4614 76.4814C18.1029 75.1196 15.8666 73.5177 13.7964 71.6816C15.8144 73.4675 18.0395 75.0793 20.4614 76.4814ZM16.5825 71.8115C16.5965 71.8446 16.6113 71.8773 16.6255 71.9102C16.6113 71.8773 16.5965 71.8446 16.5825 71.8115ZM37.8608 72.3213C37.9359 72.2656 38.0113 72.2098 38.0864 72.1533C38.0113 72.2098 37.9359 72.2656 37.8608 72.3213ZM16.7651 72.2217C16.7942 72.2842 16.8232 72.3466 16.853 72.4082C16.8232 72.3466 16.7942 72.2843 16.7651 72.2217ZM37.2222 72.7871C37.3161 72.7201 37.4093 72.6513 37.5034 72.583C37.4094 72.6514 37.3161 72.72 37.2222 72.7871ZM16.9849 72.6719C17.0066 72.714 17.0282 72.7561 17.0503 72.7978C17.0282 72.7561 17.0066 72.714 16.9849 72.6719ZM36.6479 73.1894C36.7016 73.1525 36.7554 73.1155 36.8091 73.0781C36.7554 73.1155 36.7016 73.1525 36.6479 73.1894ZM17.7817 73.9883C17.7955 74.0077 17.8098 74.0266 17.8237 74.0459C17.8098 74.0266 17.7955 74.0077 17.7817 73.9883ZM18.0405 74.3359C18.0671 74.37 18.0937 74.4039 18.1206 74.4375C18.0937 74.4039 18.0671 74.37 18.0405 74.3359ZM18.3247 74.6826C18.3526 74.7151 18.3795 74.7483 18.4077 74.7803C18.3795 74.7483 18.3526 74.7151 18.3247 74.6826ZM33.0913 75.3457C33.1316 75.3247 33.172 75.3035 33.2124 75.2822C33.172 75.3035 33.1316 75.3247 33.0913 75.3457ZM19.3667 75.7109C19.3735 75.7165 19.3804 75.7219 19.3872 75.7275C19.3804 75.7219 19.3735 75.7166 19.3667 75.7109ZM19.7046 75.9766C19.7238 75.9909 19.7429 76.0054 19.7622 76.0195C19.7429 76.0054 19.7238 75.9909 19.7046 75.9766ZM20.5034 76.5068C20.4894 76.4987 20.4754 76.4896 20.4614 76.4814C20.5017 76.5047 20.5422 76.5277 20.5825 76.5508C20.5564 76.5358 20.5295 76.5219 20.5034 76.5068ZM21.3071 76.9102C21.3208 76.9161 21.3345 76.9218 21.3481 76.9277C21.3345 76.9218 21.3208 76.9161 21.3071 76.9102ZM21.729 77.081C21.7415 77.0857 21.7536 77.0911 21.7661 77.0957C21.7536 77.0911 21.7415 77.0857 21.729 77.081ZM28.603 77.1426C28.6164 77.139 28.6297 77.1355 28.6431 77.1318C28.6297 77.1355 28.6164 77.139 28.603 77.1426ZM28.0562 77.2803C28.0783 77.2751 28.1004 77.2699 28.1226 77.2646C28.1004 77.2699 28.0783 77.2751 28.0562 77.2803ZM23.0796 77.4648C23.087 77.4663 23.0946 77.4673 23.1021 77.4687C23.0946 77.4673 23.087 77.4663 23.0796 77.4648ZM23.5151 77.54C23.5402 77.5438 23.5652 77.5472 23.5903 77.5508C23.5652 77.5472 23.5402 77.5438 23.5151 77.54ZM23.9995 77.6006C24.0109 77.6017 24.0223 77.6024 24.0337 77.6035C24.0223 77.6024 24.0109 77.6017 23.9995 77.6006ZM25.9624 77.6133C25.9836 77.6116 26.0047 77.6092 26.0259 77.6074C26.0047 77.6092 25.9836 77.6116 25.9624 77.6133ZM25.4683 77.6426C25.4871 77.6419 25.506 77.6405 25.5249 77.6396C25.506 77.6405 25.4871 77.6418 25.4683 77.6426ZM51.1528 80.7207C51.7601 80.5653 52.3637 80.3958 52.9634 80.2129C52.3637 80.3957 51.7601 80.5654 51.1528 80.7207ZM71.2271 13.2949C71.2257 13.2934 71.2246 13.2916 71.2232 13.29C71.2246 13.2916 71.2257 13.2934 71.2271 13.2949ZM59.396 4.64844C59.3203 4.62904 59.244 4.61217 59.1675 4.59472C59.2439 4.61216 59.3203 4.62905 59.396 4.64844ZM40.3862 70.3096C40.5885 70.1373 40.7912 69.9628 40.9937 69.7852C40.7912 69.9628 40.5885 70.1373 40.3862 70.3096ZM63.0112 6.62402C62.958 6.57419 62.9026 6.52685 62.8482 6.47851C62.9026 6.52684 62.958 6.5742 63.0112 6.62402ZM65.8862 11.4668C65.8448 11.3359 65.8035 11.206 65.7593 11.0781C65.8035 11.206 65.8448 11.3359 65.8862 11.4668ZM66.5073 14.1357C66.488 14.0141 66.468 13.8933 66.4468 13.7734C66.468 13.8933 66.488 14.0141 66.5073 14.1357ZM66.7983 17.2949C66.7937 17.1511 66.7885 17.0082 66.7817 16.8662C66.7885 17.0082 66.7937 17.1511 66.7983 17.2949ZM64.062 33.6807C64.1568 33.387 64.2494 33.0944 64.3394 32.8027C64.2494 33.0944 64.1568 33.387 64.062 33.6807ZM1.5503 52.1338C1.50055 51.9574 1.44925 51.7815 1.40186 51.6045C1.44924 51.7815 1.50056 51.9574 1.5503 52.1338ZM15.2603 65.8047C15.2573 65.7641 15.2542 65.7234 15.2515 65.6826C15.2542 65.7234 15.2573 65.7641 15.2603 65.8047Z" fill="black"/>
</g>
<defs>
<clipPath id="clip0_1845_56">
<rect width="375" height="82" fill="white"/>
</clipPath>
</defs>
</svg>
