<svg width="375" height="82" viewBox="0 0 375 82" fill="none" xmlns="http://www.w3.org/2000/svg">
<g clip-path="url(#clip0_1845_30)">
<path d="M357.297 67.9158C345.928 67.9158 339.653 62.1576 339.358 53.2249H348.955C349.176 58.3187 352.425 60.5335 357.223 60.5335C362.243 60.5335 364.975 58.1711 364.975 54.5537C364.975 51.3793 362.982 49.4599 357.962 49.4599H353.532C345.042 49.4599 340.096 44.809 340.096 37.9434C340.096 30.1919 346.371 24.8027 357.002 24.8027C367.928 24.8027 373.908 30.561 374.203 39.1984H364.68C364.458 34.6213 361.948 32.1851 357.002 32.1851C352.572 32.1851 349.841 34.2522 349.841 37.5743C349.841 40.601 352.129 42.0775 355.894 42.0775H360.767C370.512 42.0775 374.941 47.5405 374.941 54.1846C374.941 62.2314 368.592 67.9158 357.297 67.9158Z" fill="white"/>
<path d="M316.115 67.9147C307.699 67.9147 302.236 62.3041 302.236 51.5259V26.0566H311.538V50.4185C311.538 57.6532 314.639 60.4585 319.216 60.4585C323.94 60.4585 328.37 57.4318 328.37 49.3111V26.0566H337.672V66.6597H328.518V60.4585H328.37C325.934 65.4786 321.504 67.9147 316.115 67.9147Z" fill="white"/>
<path d="M259.453 81.4256V26.0577H268.681V29.0107C268.681 30.4872 268.681 31.7422 268.607 33.1448H268.755C271.191 27.9772 276.137 24.8027 282.338 24.8027C291.788 24.8027 300.425 32.2589 300.425 46.3593C300.425 60.4596 291.788 67.9158 282.338 67.9158C276.137 67.9158 271.191 64.7414 268.755 59.5738H268.607C268.681 61.1241 268.681 62.4529 268.681 63.9294V81.4256H259.453ZM268.681 46.3593C268.681 54.9228 272.741 60.5335 279.533 60.5335C286.399 60.5335 290.459 54.9228 290.459 46.3593C290.459 37.7957 286.399 32.1851 279.533 32.1851C272.741 32.1851 268.681 37.7957 268.681 46.3593Z" fill="white"/>
<path d="M196.979 66.6608V26.0577H206.133V32.0375H206.281C208.422 28.051 212.261 24.8027 217.945 24.8027C223.63 24.8027 227.912 27.7557 229.905 33.071H230.053C232.341 27.9772 236.697 24.8027 242.676 24.8027C250.649 24.8027 255.965 30.4872 255.965 40.3796V66.6608H246.663V41.3393C246.663 35.0642 243.858 32.2589 239.576 32.2589C235.146 32.2589 231.16 35.5072 231.16 42.6681V66.6608H221.784V41.3393C221.784 35.0642 218.979 32.2589 214.771 32.2589C210.268 32.2589 206.281 35.581 206.281 42.6681V66.6608H196.979Z" fill="white"/>
<path d="M156.545 81.4245V73.8206H168.062L172.048 64.445L156.545 26.0566H166.659L176.847 53.0762H176.995L187.256 26.0566H197.222L176.183 78.3239C175.37 80.391 173.82 81.4245 171.605 81.4245H156.545Z" fill="white"/>
<path d="M146.443 66.6605V14.0039H155.744V66.6605H146.443Z" fill="white"/>
<path d="M119.544 67.9152C105.37 67.9152 94.001 58.3919 94.001 40.8218C94.001 23.2518 105.37 13.7285 119.544 13.7285C133.792 13.7285 145.087 23.2518 145.087 40.8218C145.087 58.3919 133.792 67.9152 119.544 67.9152ZM104.336 40.8218C104.336 53.8887 110.833 60.016 119.544 60.016C128.255 60.016 134.752 53.8887 134.752 40.8218C134.752 27.755 128.255 21.6277 119.544 21.6277C110.833 21.6277 104.336 27.755 104.336 40.8218Z" fill="white"/>
<path d="M54.9547 79.5488C51.6543 80.7479 48.267 81.4974 44.8717 81.8174C48.2681 81.4923 51.6106 80.7448 54.817 79.5986C43.8992 83.5009 31.4053 82.7697 20.5709 76.541C20.5487 76.5285 20.5256 76.5166 20.5035 76.5039C20.4841 76.4926 20.4653 76.4802 20.4459 76.4687C12.1819 71.6797 6.21412 64.4455 2.9303 56.209L2.57093 55.2803C0.940939 50.911 0.104855 46.3845 0.011356 41.8848C-0.125642 35.8036 1.09141 29.629 3.78187 23.8184C5.64299 19.7768 8.16976 16.018 11.3141 12.7197C11.3841 12.6461 11.4536 12.572 11.5241 12.499C11.5924 12.4284 11.6592 12.3563 11.7282 12.2861C11.7746 12.2388 11.8232 12.1936 11.8698 12.1465C11.9428 12.0726 12.0159 11.999 12.0895 11.9258C15.3728 8.65676 19.1427 6.01969 23.2116 4.06445C23.4229 3.96238 23.635 3.86277 23.8473 3.76464C23.8879 3.74596 23.9287 3.72752 23.9694 3.70898C29.4462 1.19968 35.2418 -0.001985 40.9752 -3.58625e-06C41.0817 -0.000168676 41.1881 0.000307691 41.2946 0.000973004C41.4414 0.00216834 41.5882 0.00406067 41.735 0.00683242C46.9437 0.09545 52.1907 1.17985 57.191 3.33691C57.3154 3.39024 57.4393 3.44445 57.5631 3.49902C57.6549 3.53968 57.7469 3.57971 57.8385 3.62109C62.4225 5.68151 66.6549 8.59218 70.2731 12.2861C70.3229 12.3369 70.372 12.3885 70.4215 12.4395C70.6041 12.6278 70.7861 12.8174 70.9655 13.0098C71.0681 13.1196 71.1689 13.231 71.2701 13.3418C71.3308 13.4083 71.3915 13.475 71.4518 13.542C74.4506 16.8665 76.8463 20.6246 78.5914 24.6445C80.6537 29.3692 81.7541 34.3175 81.9606 39.248C81.9679 39.415 81.9739 39.5819 81.9791 39.749C81.9831 39.8838 81.9862 40.0186 81.9889 40.1533C82.1454 47.394 80.388 54.768 76.5026 61.498L76.4274 61.625C76.4519 61.5829 76.4772 61.5412 76.5016 61.499C76.8545 60.8878 77.1905 60.2716 77.5084 59.6504C76.2324 62.1539 74.6945 64.537 72.9059 66.7539C72.9412 66.71 72.9752 66.6651 73.0104 66.6211C68.1923 72.6563 61.8954 77.0402 54.9547 79.5488ZM57.0426 4.35449C56.9354 4.35379 56.8277 4.35502 56.7194 4.35742C56.8277 4.355 56.9354 4.3538 57.0426 4.35449ZM58.1344 4.41894C57.8196 4.38354 57.4994 4.36247 57.1735 4.35644C57.4993 4.36242 57.8196 4.3836 58.1344 4.41894ZM56.6139 4.36035C56.5012 4.36388 56.3879 4.36815 56.2741 4.375C56.3879 4.36813 56.5012 4.3639 56.6139 4.36035ZM56.1705 4.38281C56.0588 4.39048 55.9465 4.39836 55.8336 4.40918C55.9464 4.39834 56.0588 4.3905 56.1705 4.38281ZM52.3385 5.18261C53.5209 4.78643 54.6652 4.52853 55.7594 4.41699C54.665 4.52837 53.5211 4.78648 52.3385 5.18261ZM58.5631 4.47656C58.4763 4.46281 58.3891 4.44988 58.3014 4.43847C58.3891 4.44987 58.4763 4.46283 58.5631 4.47656ZM58.9782 4.55176C58.8901 4.53366 58.8016 4.51754 58.7125 4.50195C58.8015 4.51752 58.8901 4.53367 58.9782 4.55176ZM59.3815 4.64355C59.3068 4.62454 59.2314 4.60794 59.1559 4.59082C59.2314 4.60792 59.3068 4.62455 59.3815 4.64355ZM59.9879 4.82324C59.8551 4.77881 59.7211 4.73723 59.5856 4.69922C59.7211 4.73721 59.8551 4.77883 59.9879 4.82324ZM60.3668 4.95898C60.2962 4.93152 60.2254 4.90446 60.1539 4.8789C60.2254 4.90445 60.2962 4.93153 60.3668 4.95898ZM60.7653 5.12597C60.697 5.09525 60.6283 5.06596 60.5592 5.03711C60.6282 5.06595 60.697 5.09526 60.7653 5.12597ZM61.15 5.31055C61.0733 5.27106 60.9954 5.23425 60.9176 5.19726C60.9954 5.23423 61.0733 5.27107 61.15 5.31055ZM52.2936 5.19726C52.1537 5.2445 52.0136 5.29462 51.8727 5.3457C52.0136 5.29462 52.1537 5.24451 52.2936 5.19726ZM40.0446 70.5957C45.6282 65.9235 51.3125 59.1551 56.1588 50.9736L56.693 50.0605C58.4426 47.03 59.9735 43.9915 61.2789 41.001C60.1051 38.3116 58.749 35.5828 57.2155 32.8564L56.692 31.9365C52.0061 23.8201 46.4829 17.0349 41.0045 12.2246C42.735 10.7057 44.4602 9.3828 46.1539 8.27832C51.9242 13.5552 57.5114 20.6019 62.2145 28.748L62.7701 29.7227C63.3253 30.7094 63.859 31.7001 64.3727 32.6904C66.036 27.2693 66.863 22.2166 66.8121 17.9209L66.3375 17.3994C61.3834 12.0703 54.9579 8.55099 48.0748 7.11133C49.3582 6.39007 50.6168 5.80307 51.8366 5.3584C43.418 8.42665 33.1824 18.3033 25.3092 31.9404L24.7858 32.8594C21.8478 38.0824 19.5625 43.3135 17.9596 48.2627C18.7264 45.8956 19.6494 43.4642 20.7252 41C22.0303 43.9892 23.5594 47.0274 25.3082 50.0566L25.8424 50.9697C30.4129 58.6855 35.729 65.1451 41.0026 69.7744C40.683 70.055 40.3636 70.3287 40.0446 70.5957ZM61.4967 5.49805C61.4384 5.46436 61.378 5.4345 61.319 5.40234C61.3781 5.43457 61.4382 5.46526 61.4967 5.49902C61.5455 5.52717 61.5932 5.55782 61.6412 5.58691L61.4967 5.49805ZM61.8951 5.74316L61.8444 5.71191C61.9151 5.75761 61.9841 5.80572 62.0534 5.85351C62.0006 5.8171 61.9488 5.77836 61.8951 5.74316ZM62.3668 6.08008C62.3046 6.03265 62.2419 5.98607 62.1784 5.94043C62.2419 5.98606 62.3046 6.03266 62.3668 6.08008ZM62.7008 6.34765C62.6446 6.30005 62.5873 6.25405 62.5299 6.20801C62.5873 6.25405 62.6446 6.30006 62.7008 6.34765ZM63.0104 6.62207C63.1583 6.76035 63.3 6.90605 63.4391 7.05566C63.3 6.90603 63.1583 6.76036 63.0104 6.62207ZM9.56995 55.5127C11.0268 47.1954 14.5401 37.8397 19.7867 28.7519L20.3532 27.7832C25.487 19.1152 31.61 11.7492 37.8532 6.52246C27.318 7.49342 17.3843 13.2664 11.4782 22.9228L11.0211 23.6914C5.17963 33.8097 5.02726 45.6511 9.56995 55.5127ZM63.7282 7.38086C63.6777 7.32107 63.6275 7.26131 63.5758 7.20312C63.6275 7.26131 63.6777 7.32108 63.7282 7.38086ZM64.0035 7.72168C63.953 7.65585 63.9012 7.59144 63.8492 7.52734C63.9012 7.59144 63.953 7.65585 64.0035 7.72168ZM64.2565 8.0664C64.2067 7.99532 64.1554 7.92571 64.1041 7.85644C64.1554 7.9257 64.2067 7.99532 64.2565 8.0664ZM64.6588 8.68945C64.5555 8.51719 64.4484 8.34966 64.3375 8.18652C64.4484 8.34965 64.5555 8.5172 64.6588 8.68945ZM64.8258 8.97754C64.7884 8.91061 64.7511 8.84397 64.7125 8.77832C64.7511 8.84396 64.7884 8.91061 64.8258 8.97754ZM65.0397 9.37598C65.0076 9.31295 64.975 9.25046 64.942 9.18848C64.975 9.25046 65.0076 9.31296 65.0397 9.37598ZM65.234 9.77344C65.2097 9.72113 65.1837 9.66981 65.1588 9.61816C65.1837 9.66981 65.2097 9.72113 65.234 9.77344ZM65.4391 10.2373C65.4106 10.1692 65.3806 10.1022 65.3512 10.0352C65.3806 10.1022 65.4106 10.1693 65.4391 10.2373ZM65.7125 10.9482C65.6645 10.8134 65.6153 10.6802 65.5641 10.5488C65.6153 10.6801 65.6645 10.8134 65.7125 10.9482ZM65.8619 11.3887C65.8299 11.2892 65.7979 11.1904 65.7643 11.0928C65.7979 11.1904 65.8299 11.2892 65.8619 11.3887ZM66.0006 11.8437C65.973 11.7486 65.9447 11.6542 65.9157 11.5605C65.9446 11.6542 65.973 11.7486 66.0006 11.8437ZM66.1373 12.3418C66.1112 12.2404 66.0839 12.1399 66.0563 12.04C66.0839 12.1399 66.1112 12.2404 66.1373 12.3418ZM66.4215 13.6396C66.3534 13.2692 66.276 12.9079 66.1901 12.5557C66.276 12.9078 66.3534 13.2692 66.4215 13.6396ZM66.5075 14.1416C66.4902 14.0332 66.4734 13.9253 66.4547 13.8184C66.4734 13.9253 66.4902 14.0332 66.5075 14.1416ZM66.5914 14.7139C66.5743 14.5846 66.5558 14.4564 66.5367 14.3291C66.5558 14.4564 66.5743 14.5846 66.5914 14.7139ZM66.7819 16.8643C66.7489 16.1677 66.6895 15.4934 66.6071 14.8428C66.6895 15.4934 66.7489 16.1677 66.7819 16.8643ZM66.8121 17.8896C66.8105 17.7614 66.8075 17.6338 66.8043 17.5068C66.8076 17.6338 66.8105 17.7614 66.8121 17.8896ZM4.98987 21.4121C5.1555 21.1079 5.32452 20.8046 5.49866 20.5029C5.6566 20.2294 5.81883 19.9589 5.98206 19.6904C5.81854 19.9594 5.65588 20.2299 5.49769 20.5039C5.32377 20.8052 5.15515 21.1083 4.98987 21.4121ZM44.15 75.4766C54.6846 74.505 64.6174 68.7331 70.5231 59.0771L70.9801 58.3096C76.8216 48.1915 76.9747 36.3499 72.4323 26.4883C70.9755 34.8055 67.4621 44.1613 62.2155 53.249C56.9691 62.3363 50.624 70.0563 44.15 75.4766ZM64.0963 33.5684C64.1791 33.3107 64.2605 33.0539 64.3395 32.7979C64.2605 33.0539 64.179 33.3107 64.0963 33.5684ZM63.778 34.5371C63.8584 34.2981 63.938 34.06 64.0153 33.8223C63.938 34.06 63.8584 34.2981 63.778 34.5371ZM63.0075 36.7207C63.2453 36.0796 63.4712 35.4418 63.6871 34.8086C63.4714 35.4419 63.2451 36.0796 63.0075 36.7207ZM62.6344 37.7021C62.6978 37.5379 62.7599 37.3737 62.8219 37.21C62.76 37.3737 62.6978 37.5379 62.6344 37.7021ZM62.3024 38.5478C62.3532 38.4206 62.4028 38.2931 62.4528 38.166C62.4028 38.2931 62.3532 38.4205 62.3024 38.5478ZM61.9176 39.4951C61.9529 39.4098 61.9881 39.3245 62.0231 39.2393C61.9882 39.3245 61.9529 39.4098 61.9176 39.4951ZM61.2789 41C61.4097 40.7003 61.5384 40.4012 61.6647 40.1025C61.5384 40.4012 61.4097 40.7003 61.2789 41ZM17.9059 48.4316C17.8197 48.7001 17.7351 48.9676 17.653 49.2344C17.7351 48.9676 17.8197 48.7001 17.9059 48.4316ZM33.9352 74.8857C34.5681 74.5297 35.2074 74.1416 35.8512 73.7217C30.0789 68.4441 24.4904 61.3941 19.7858 53.2451L19.2301 52.2705C18.6761 51.2857 18.1433 50.2979 17.6305 49.3096C15.967 54.7304 15.1395 59.7825 15.1901 64.0781C20.2071 69.7002 26.8276 73.4014 33.9352 74.8857ZM15.192 64.2266C15.1934 64.3089 15.1949 64.3909 15.1969 64.4727C15.1949 64.3909 15.1934 64.3089 15.192 64.2266ZM15.2067 64.7842C15.2106 64.896 15.2142 65.0074 15.2194 65.1182C15.2142 65.0074 15.2106 64.896 15.2067 64.7842ZM15.3532 66.8193C15.3645 66.9202 15.3768 67.0204 15.3893 67.1201C15.3768 67.0204 15.3645 66.9202 15.3532 66.8193ZM15.4283 67.4189C15.4365 67.4781 15.4451 67.537 15.4537 67.5957C15.4451 67.537 15.4365 67.4781 15.4283 67.4189ZM15.5045 67.9287C15.5179 68.0111 15.5313 68.0932 15.5455 68.1748C15.5313 68.0932 15.5179 68.0111 15.5045 67.9287ZM15.7487 69.1875C15.7683 69.2734 15.7895 69.3585 15.8102 69.4434C15.7895 69.3585 15.7683 69.2734 15.7487 69.1875ZM15.8717 69.6894C15.8951 69.7796 15.9194 69.8691 15.944 69.958C15.9194 69.8691 15.8951 69.7796 15.8717 69.6894ZM16.0084 70.1846C16.0314 70.2632 16.0548 70.3413 16.0787 70.4189C16.0548 70.3413 16.0314 70.2632 16.0084 70.1846ZM16.1705 70.706C16.1901 70.7654 16.208 70.8251 16.2282 70.8838C16.208 70.8251 16.1901 70.7654 16.1705 70.706ZM20.4996 76.5029C18.1268 75.1362 15.8771 73.5259 13.7955 71.6797C15.8244 73.4751 18.0626 75.0955 20.4996 76.5029ZM38.4996 71.8379C38.5376 71.8087 38.5749 71.7785 38.6129 71.749C38.5749 71.7785 38.5376 71.8086 38.4996 71.8379ZM16.5768 71.7978C16.5923 71.8346 16.6089 71.8708 16.6246 71.9072C16.6089 71.8708 16.5923 71.8346 16.5768 71.7978ZM37.861 72.3203C37.926 72.2721 37.9912 72.2237 38.0563 72.1748C37.9912 72.2237 37.926 72.272 37.861 72.3203ZM16.7819 72.2578C16.8024 72.3017 16.8234 72.3452 16.8444 72.3887C16.8234 72.3452 16.8024 72.3017 16.7819 72.2578ZM37.2682 72.7529C37.2865 72.7398 37.3045 72.7261 37.3229 72.7129C37.3045 72.7261 37.2865 72.7398 37.2682 72.7529ZM17.0065 72.7129C17.0233 72.7452 17.0402 72.7775 17.0573 72.8096C17.0402 72.7775 17.0233 72.7452 17.0065 72.7129ZM36.6442 73.1904C36.6807 73.1653 36.717 73.1396 36.7535 73.1143C36.717 73.1396 36.6807 73.1653 36.6442 73.1904ZM17.2584 73.1719C17.2635 73.1806 17.268 73.1896 17.2731 73.1982C17.268 73.1896 17.2635 73.1806 17.2584 73.1719ZM35.9987 73.625C36.0767 73.5736 36.1549 73.522 36.233 73.4697C36.1549 73.522 36.0767 73.5736 35.9987 73.625ZM17.5153 73.5937C17.5287 73.6147 17.5427 73.6354 17.5563 73.6562C17.5427 73.6354 17.5287 73.6147 17.5153 73.5937ZM17.7819 73.9873C17.7956 74.0067 17.81 74.0257 17.8239 74.0449C17.81 74.0257 17.7956 74.0067 17.7819 73.9873ZM18.0407 74.335C18.0665 74.3681 18.0926 74.4009 18.1188 74.4336C18.0926 74.4009 18.0665 74.3681 18.0407 74.335ZM18.3561 74.7187C18.3697 74.7344 18.3834 74.75 18.3971 74.7656C18.3834 74.75 18.3697 74.7344 18.3561 74.7187ZM33.6696 75.0352C33.7056 75.0153 33.7418 74.9956 33.778 74.9756C33.7418 74.9956 33.7056 75.0153 33.6696 75.0352ZM19.3668 75.71C19.3736 75.7156 19.3805 75.721 19.3873 75.7266C19.3805 75.721 19.3736 75.7156 19.3668 75.71ZM19.7047 75.9756C19.7236 75.9896 19.7424 76.0037 19.7614 76.0176C19.7424 76.0037 19.7236 75.9896 19.7047 75.9756ZM31.3405 76.1777C31.3762 76.1624 31.4121 76.1474 31.4479 76.1318C31.4121 76.1474 31.3762 76.1624 31.3405 76.1777ZM30.7985 76.4033C30.8297 76.3908 30.8609 76.3779 30.8922 76.3652C30.8609 76.3779 30.8297 76.3908 30.7985 76.4033ZM20.5026 76.5049C20.5015 76.5043 20.5006 76.5035 20.4996 76.5029C20.5152 76.5119 20.531 76.5204 20.5465 76.5293C20.5321 76.521 20.5169 76.5132 20.5026 76.5049ZM21.3024 76.9062C21.3209 76.9144 21.3394 76.9226 21.358 76.9307C21.3394 76.9226 21.3209 76.9144 21.3024 76.9062ZM21.7174 77.0762C21.7352 77.0829 21.7532 77.0891 21.7711 77.0957C21.7532 77.0891 21.7352 77.0829 21.7174 77.0762ZM28.569 77.1504C28.6015 77.1417 28.634 77.1329 28.6666 77.124C28.634 77.1329 28.6015 77.1417 28.569 77.1504ZM23.0729 77.4619C23.0881 77.465 23.1035 77.4677 23.1188 77.4707C23.1035 77.4677 23.0881 77.465 23.0729 77.4619ZM24.0026 77.5996C24.013 77.6006 24.0234 77.6015 24.0338 77.6025C24.0234 77.6015 24.013 77.6006 24.0026 77.5996ZM25.9391 77.6133C25.9729 77.6107 26.0068 77.6084 26.0406 77.6055C26.0068 77.6084 25.9729 77.6107 25.9391 77.6133ZM54.8795 79.5762C55.0162 79.5271 55.1526 79.4773 55.2887 79.4268C55.1776 79.4682 55.066 79.5084 54.9547 79.5488C54.9296 79.5579 54.9046 79.5672 54.8795 79.5762ZM39.0758 71.3877C39.2146 71.2773 39.3528 71.1648 39.4918 71.0518C39.3529 71.1648 39.2146 71.2773 39.0758 71.3877ZM63.0104 6.62207C62.9514 6.56687 62.8901 6.5143 62.8297 6.46094C62.8901 6.51429 62.9514 6.56688 63.0104 6.62207ZM66.7985 17.293C66.7938 17.1492 66.7886 17.0062 66.7819 16.8643C66.7886 17.0062 66.7938 17.1492 66.7985 17.293Z" fill="white"/>
</g>
<defs>
<clipPath id="clip0_1845_30">
<rect width="375" height="82" fill="white"/>
</clipPath>
</defs>
</svg>
