<svg width="87" height="84" viewBox="0 0 87 84" fill="none" xmlns="http://www.w3.org/2000/svg">
<path d="M26.779 0.655325C27.0231 0.567704 27.2678 0.481881 27.5134 0.398489C27.2678 0.48188 27.0231 0.567704 26.779 0.655325ZM9.66474 68.2198C-0.295058 55.4406 -2.10561 37.3947 6.49384 22.5001L7.03486 21.5899C15.7739 7.30256 31.9577 0.195697 47.6745 2.3858C46.2318 3.20412 44.7925 4.14313 43.3698 5.18267C35.8764 10.658 28.2291 19.3632 21.9177 30.0186L21.3112 31.0557C14.8869 42.183 10.9614 53.5702 9.93427 63.0948C9.7454 64.8463 9.6521 66.5615 9.66474 68.2198ZM20.3386 3.54986C20.9731 3.20221 21.6151 2.86982 22.2644 2.55376C21.9399 2.71172 21.6175 2.87422 21.2966 3.04009L20.3386 3.54986ZM59.4128 2.77349C59.4709 2.77294 59.5288 2.77323 59.5866 2.77349C59.5288 2.77324 59.4709 2.77292 59.4128 2.77349ZM60.1491 2.79009C60.0735 2.78616 59.9977 2.7828 59.9216 2.78033C59.9977 2.78282 60.0735 2.78614 60.1491 2.79009ZM58.8376 2.79302C58.8895 2.79018 58.9412 2.78742 58.9929 2.78521C58.9412 2.78743 58.8895 2.79017 58.8376 2.79302ZM60.4685 2.81158C60.5256 2.8162 60.5826 2.82074 60.6394 2.82623C60.5826 2.82076 60.5256 2.81618 60.4685 2.81158ZM58.1804 2.84576C58.2843 2.83502 58.3878 2.82576 58.4909 2.81744C58.3878 2.82579 58.2843 2.835 58.1804 2.84576ZM61.027 2.87017C61.0869 2.87815 61.1463 2.88757 61.2058 2.89654C61.1463 2.88758 61.0869 2.87814 61.027 2.87017ZM61.6843 2.97955C61.6369 2.97007 61.5894 2.96102 61.5417 2.9522C61.5894 2.96103 61.6369 2.97006 61.6843 2.97955ZM57.0407 3.00884C57.1339 2.99198 57.2265 2.97508 57.319 2.96002C57.2265 2.9751 57.1338 2.99196 57.0407 3.00884ZM56.364 3.14654C56.529 3.10958 56.6929 3.07454 56.8561 3.04302C56.6929 3.07457 56.5289 3.10956 56.364 3.14654ZM62.0446 3.05865C62.0897 3.06944 62.1346 3.08044 62.1794 3.09185C62.1346 3.08045 62.0897 3.06943 62.0446 3.05865ZM66.3093 37.8887C65.209 35.6125 64.0022 33.3284 62.6901 31.0557C57.5123 22.0875 51.3758 14.4407 45.1403 8.85162C44.932 9.00872 44.7241 9.16943 44.5153 9.33208C48.6006 6.14926 52.5992 4.0245 56.2048 3.1817C55.5041 3.34558 54.7884 3.55744 54.0602 3.81646C59.8869 5.60786 65.3241 8.69443 69.903 12.9483C69.8091 12.4398 69.6995 11.9466 69.5749 11.4698C71.2735 17.9686 70.1098 27.479 66.3093 37.8887ZM62.5817 3.20416C62.6127 3.21351 62.6437 3.22281 62.6745 3.23248C62.6437 3.22282 62.6127 3.2135 62.5817 3.20416ZM63.528 3.54693C63.5609 3.56094 63.5939 3.57453 63.6267 3.58892C63.5939 3.57453 63.5609 3.56093 63.528 3.54693ZM64.0251 3.77545C64.0441 3.78495 64.0628 3.7951 64.0817 3.80474C64.0628 3.7951 64.0441 3.78495 64.0251 3.77545ZM64.9011 4.27838C64.9224 4.29225 64.9443 4.30534 64.9655 4.31939C64.9443 4.30534 64.9224 4.29226 64.9011 4.27838ZM65.3259 4.57134C65.3512 4.58993 65.376 4.60914 65.4011 4.62798C65.376 4.60914 65.3512 4.58993 65.3259 4.57134ZM66.4772 5.23736L66.4763 5.23736L66.4772 5.23736ZM66.0925 5.20123C66.1217 5.22798 66.1505 5.25513 66.1794 5.28228C66.1505 5.25512 66.1217 5.22799 66.0925 5.20123ZM66.4743 5.57134C66.5079 5.60576 66.5408 5.64084 66.5739 5.67584C66.5408 5.64084 66.5079 5.60577 66.4743 5.57134ZM66.9147 6.05474C66.8822 6.01659 66.8491 5.97901 66.8161 5.94146C66.8491 5.97901 66.8822 6.0166 66.9147 6.05474ZM67.1394 6.32818C67.1716 6.36874 67.2043 6.40907 67.236 6.45025C67.2043 6.40907 67.1716 6.36874 67.1394 6.32818ZM67.486 6.78814C67.5124 6.82525 67.5381 6.86288 67.5642 6.90045C67.5382 6.86288 67.5124 6.82525 67.486 6.78814ZM67.8815 7.38482C67.8456 7.32684 67.8099 7.26899 67.7731 7.21197C67.8099 7.26899 67.8456 7.32684 67.8815 7.38482ZM11.905 9.53521C12.7098 8.81116 13.5364 8.11821 14.3854 7.45904C13.5364 8.11822 12.7098 8.81115 11.905 9.53521ZM68.0466 7.65924C68.0725 7.70361 68.0983 7.74812 68.1237 7.79302C68.0983 7.74812 68.0724 7.70361 68.0466 7.65924ZM68.3327 8.17584C68.3563 8.22103 68.3789 8.26687 68.402 8.31256C68.3789 8.26686 68.3563 8.22104 68.3327 8.17584ZM68.6657 8.86334C68.6346 8.79446 68.603 8.72613 68.571 8.65826C68.603 8.72613 68.6346 8.79446 68.6657 8.86334ZM68.8054 9.18365C68.8261 9.2327 68.8476 9.28158 68.8679 9.33111C68.8476 9.28158 68.8261 9.2327 68.8054 9.18365ZM43.2116 10.3799C43.6283 10.0339 44.0444 9.69852 44.4597 9.37408C44.0444 9.69851 43.6283 10.0339 43.2116 10.3799ZM69.031 9.7481C69.0529 9.80634 69.074 9.86503 69.0954 9.92388C69.0741 9.86503 69.0529 9.80634 69.031 9.7481ZM69.3063 10.5411C69.2833 10.4687 69.2599 10.3968 69.236 10.3253C69.2599 10.3968 69.2833 10.4687 69.3063 10.5411ZM41.8933 11.5098C42.3103 11.1419 42.727 10.7844 43.1433 10.4376C42.727 10.7844 42.3103 11.142 41.8933 11.5098ZM41.3073 12.0342C41.4772 11.8805 41.6463 11.7275 41.8161 11.5772C41.6463 11.7275 41.4772 11.8805 41.3073 12.0342ZM40.6462 12.6426C40.803 12.4966 40.9581 12.3502 41.1149 12.2071C40.9581 12.3502 40.803 12.4966 40.6462 12.6426ZM39.2761 13.9532C39.4343 13.7972 39.5923 13.6424 39.7507 13.4893C39.5923 13.6424 39.4343 13.7972 39.2761 13.9532ZM38.5563 14.6719C38.741 14.4847 38.9261 14.2997 39.111 14.1163C38.9261 14.2996 38.741 14.4847 38.5563 14.6719ZM37.9304 15.3145C38.1137 15.124 38.2976 14.9358 38.4811 14.7491C38.2976 14.9358 38.1137 15.124 37.9304 15.3145ZM37.3356 15.9415C37.4895 15.7777 37.6434 15.6152 37.7976 15.4542C37.6434 15.6152 37.4895 15.7778 37.3356 15.9415ZM36.6931 16.6329C36.8119 16.5033 36.9305 16.3742 37.0495 16.2461C36.9305 16.3742 36.8119 16.5033 36.6931 16.6329ZM36.0407 17.3526C36.1534 17.2267 36.2658 17.1011 36.3786 16.9766C36.2658 17.1011 36.1534 17.2267 36.0407 17.3526ZM77.5075 63.5001C68.9081 78.3947 52.3739 85.8492 36.3268 83.6133C37.7693 82.7952 39.2091 81.8587 40.6315 80.8194C48.1252 75.3442 55.7721 66.6381 62.0837 55.9825L62.6901 54.9454C69.1147 43.8177 73.0412 32.4302 74.0681 22.9053C74.2569 21.1535 74.3493 19.4379 74.3366 17.7794C84.2967 30.5586 86.1069 48.6053 77.5075 63.5001ZM35.3933 18.084C35.4823 17.982 35.5716 17.8805 35.6608 17.7793C35.5716 17.8805 35.4823 17.982 35.3933 18.084ZM34.6716 18.9219C34.7971 18.7743 34.9227 18.6275 35.0485 18.4815C34.9227 18.6274 34.7971 18.7743 34.6716 18.9219ZM34.0456 19.668C34.182 19.5038 34.319 19.341 34.4558 19.1788C34.319 19.341 34.182 19.5038 34.0456 19.668ZM33.4245 20.4249C33.5489 20.2716 33.6738 20.1194 33.7985 19.9678C33.6738 20.1194 33.5489 20.2716 33.4245 20.4249ZM32.78 21.2276C32.8755 21.107 32.9713 20.9869 33.0671 20.8672C32.9713 20.9869 32.8755 21.107 32.78 21.2276ZM1.56025 23.2647C1.87666 22.618 2.20889 21.9753 2.55927 21.3379L2.46161 21.5127C2.14633 22.0922 1.84754 22.6775 1.56025 23.2647ZM32.1647 22.0147C32.244 21.9124 32.3236 21.8107 32.403 21.709C32.3236 21.8107 32.244 21.9124 32.1647 22.0147ZM31.528 22.8467C31.5949 22.7582 31.6621 22.6701 31.7292 22.5821C31.6621 22.6701 31.5949 22.7582 31.528 22.8467ZM30.8718 23.7247C30.9371 23.6362 31.0026 23.5481 31.0681 23.46C31.0026 23.5481 30.9371 23.6362 30.8718 23.7247ZM30.1755 24.6817C30.2818 24.5337 30.3881 24.3861 30.4948 24.2393C30.3881 24.3861 30.2818 24.5337 30.1755 24.6817ZM29.5593 25.5499C29.6843 25.3717 29.8096 25.1942 29.9352 25.0176C29.8095 25.1942 29.6844 25.3717 29.5593 25.5499ZM28.944 26.4366C29.0704 26.2522 29.1969 26.0685 29.3239 25.8858C29.1969 26.0685 29.0704 26.2522 28.944 26.4366ZM28.3688 27.2833C28.4156 27.2134 28.4626 27.1438 28.5095 27.0743C28.4626 27.1438 28.4156 27.2135 28.3688 27.2833ZM27.7243 28.2569C27.8145 28.1188 27.9062 27.982 27.9968 27.8448C27.9062 27.982 27.8145 28.1188 27.7243 28.2569ZM27.1364 29.169C27.1669 29.1212 27.1967 29.0731 27.2272 29.0254C27.1967 29.0731 27.1669 29.1212 27.1364 29.169ZM26.5309 30.128C26.6109 29.9995 26.6919 29.8719 26.7722 29.7442C26.6918 29.8719 26.6109 29.9995 26.5309 30.128ZM23.3698 35.5733C23.4711 35.3859 23.5726 35.1982 23.6755 35.0108C23.5726 35.1982 23.4711 35.3859 23.3698 35.5733ZM22.3864 37.4385C22.4554 37.3043 22.5237 37.1695 22.5934 37.0352C22.5237 37.1695 22.4554 37.3043 22.3864 37.4385ZM21.9206 38.3555C21.9891 38.2188 22.0583 38.0822 22.1276 37.9454C22.0583 38.0822 21.9891 38.2188 21.9206 38.3555ZM21.5026 39.2002C21.5409 39.1221 21.5794 39.044 21.6179 38.9659C21.5794 39.044 21.5409 39.1221 21.5026 39.2002ZM65.5671 39.8467C65.4621 40.1142 65.3552 40.382 65.2468 40.6504C65.3552 40.382 65.4621 40.1142 65.5671 39.8467ZM20.9274 40.3965C21.0085 40.2251 21.0902 40.0535 21.1726 39.8819C21.0902 40.0535 21.0085 40.2251 20.9274 40.3965ZM65.2116 40.7383C65.1299 40.94 65.0462 41.1416 64.9626 41.3438C65.0462 41.1416 65.1299 40.94 65.2116 40.7383ZM20.486 41.3438C20.566 41.1697 20.6469 40.9956 20.7282 40.8213C20.6469 40.9956 20.566 41.1697 20.486 41.3438ZM64.8015 41.7335C64.7298 41.9045 64.6577 42.0758 64.5847 42.2471C64.6577 42.0758 64.7298 41.9045 64.8015 41.7335ZM20.0671 42.2696C20.1381 42.1106 20.2088 41.9512 20.2809 41.792C20.2088 41.9512 20.1381 42.1106 20.0671 42.2696ZM64.4069 42.6622C64.3329 42.8336 64.2577 43.0051 64.1823 43.1768C64.2577 43.0051 64.3329 42.8336 64.4069 42.6622ZM19.6247 43.2764C19.7025 43.0966 19.7808 42.9165 19.86 42.7364C19.7808 42.9165 19.7025 43.0966 19.6247 43.2764ZM19.2263 44.211C19.3037 44.0266 19.3817 43.842 19.4606 43.6573C19.3817 43.842 19.3036 44.0266 19.2263 44.211ZM63.9235 43.7608C63.8763 43.8665 63.8287 43.9723 63.7809 44.0782C63.8287 43.9723 63.8763 43.8665 63.9235 43.7608ZM18.8015 45.2413C18.8804 45.0467 18.9591 44.8514 19.0397 44.6563C18.9591 44.8514 18.8803 45.0466 18.8015 45.2413ZM63.5075 44.6768C63.442 44.8192 63.3766 44.962 63.3102 45.1045C63.3766 44.962 63.442 44.8192 63.5075 44.6768ZM18.4343 46.1602C18.5033 45.9844 18.5727 45.8082 18.6433 45.6319C18.5728 45.8082 18.5033 45.9843 18.4343 46.1602ZM63.0095 45.7432C62.9587 45.8502 62.9084 45.9575 62.8571 46.0645C62.9084 45.9575 62.9587 45.8502 63.0095 45.7432ZM18.0583 47.1338C18.1476 46.8982 18.2388 46.6623 18.3308 46.4258C18.2388 46.6623 18.1476 46.8982 18.0583 47.1338ZM62.5583 46.6817C62.5037 46.7936 62.4493 46.9057 62.3942 47.0176C62.4493 46.9057 62.5037 46.7936 62.5583 46.6817ZM17.694 48.1153C18.6255 50.0421 19.6329 51.9752 20.7165 53.9014L21.3112 54.9454C26.4894 63.9141 32.6269 71.5605 38.863 77.1495C35.7872 79.4695 32.7689 81.1798 29.9411 82.1856C24.1152 80.3948 18.6789 77.3084 14.1003 73.0557C12.9139 66.635 14.1723 57.7618 17.694 48.1153ZM62.1081 47.5938C62.0254 47.7591 61.942 47.9245 61.8581 48.0899C61.942 47.9245 62.0254 47.7591 62.1081 47.5938ZM86.5183 49.6495C86.5722 49.2874 86.6217 48.9251 86.6667 48.5626L86.6667 48.5635C86.6217 48.926 86.5722 49.2884 86.5183 49.6504L86.5183 49.6495ZM61.6159 48.5626C61.5366 48.7169 61.458 48.872 61.3776 49.0264C61.458 48.872 61.5366 48.7169 61.6159 48.5626ZM60.4968 50.6768C60.4393 50.7824 60.3828 50.8886 60.3249 50.9942C60.3828 50.8886 60.4393 50.7824 60.4968 50.6768ZM85.653 53.9776C85.7523 53.5836 85.8441 53.1884 85.9323 52.793C85.8441 53.1884 85.7523 53.5836 85.653 53.9776ZM58.6559 53.921C58.5615 54.0805 58.4658 54.239 58.3708 54.3975C58.4658 54.239 58.5615 54.0805 58.6559 53.921ZM83.9489 59.3057C84.0858 58.9548 84.2179 58.6029 84.3454 58.2501C84.2178 58.6031 84.0859 58.9555 83.9489 59.3067L83.9489 59.3057ZM56.2517 57.7833C56.1593 57.9245 56.0661 58.0648 55.9733 58.2051C56.0661 58.0648 56.1593 57.9245 56.2517 57.7833ZM55.6042 58.7608C55.5638 58.821 55.5236 58.8814 55.4831 58.9415C55.5236 58.8814 55.5638 58.821 55.6042 58.7608ZM55.0095 59.6387C54.9508 59.7242 54.8906 59.8085 54.8317 59.8936C54.8906 59.8085 54.9508 59.7242 55.0095 59.6387ZM54.3874 60.5323C54.3123 60.639 54.2371 60.7455 54.1618 60.8516C54.2371 60.7455 54.3123 60.639 54.3874 60.5323ZM53.7604 61.4122C53.6485 61.5676 53.5359 61.722 53.4235 61.876C53.5359 61.722 53.6485 61.5676 53.7604 61.4122ZM53.1657 62.2305C53.0541 62.382 52.9408 62.5316 52.8288 62.6817C52.9408 62.5316 53.0541 62.382 53.1657 62.2305ZM52.4421 63.1973C52.4061 63.2448 52.3706 63.2926 52.3347 63.3399C52.3706 63.2926 52.4061 63.2448 52.4421 63.1973ZM51.8405 63.9844C51.7322 64.1243 51.6229 64.2628 51.5143 64.4014C51.623 64.2628 51.7322 64.1243 51.8405 63.9844ZM51.2204 64.7764C51.1153 64.909 51.0094 65.0405 50.904 65.1719C51.0094 65.0405 51.1153 64.909 51.2204 64.7764ZM80.9714 65.5001C81.0692 65.3307 81.1631 65.1594 81.2585 64.9893C81.163 65.1596 81.0693 65.3315 80.9714 65.501C80.8323 65.742 80.6885 65.9795 80.5456 66.2169L80.9714 65.5001ZM50.5524 65.6085C50.4621 65.7196 50.3714 65.8302 50.2809 65.9405C50.3714 65.8302 50.4621 65.7196 50.5524 65.6085ZM49.8913 66.4122C49.7741 66.553 49.6563 66.6927 49.5388 66.8321C49.6563 66.6927 49.7741 66.553 49.8913 66.4122ZM49.2995 67.1153C49.1726 67.2645 49.0459 67.4132 48.9186 67.5606C49.0459 67.4132 49.1726 67.2645 49.2995 67.1153ZM48.5808 67.9493C48.4864 68.0572 48.392 68.1646 48.2975 68.2715C48.392 68.1646 48.4864 68.0572 48.5808 67.9493ZM47.9216 68.6934C47.8057 68.8227 47.69 68.9514 47.5739 69.0792C47.69 68.9514 47.8057 68.8227 47.9216 68.6934ZM47.2809 69.4004C47.1782 69.5124 47.0753 69.6237 46.9724 69.7344C47.0753 69.6237 47.1782 69.5124 47.2809 69.4004ZM46.5808 70.1514C46.4675 70.2715 46.3543 70.3911 46.2409 70.5098C46.3543 70.3911 46.4675 70.2715 46.5808 70.1514ZM45.944 70.8194C45.8283 70.9391 45.7122 71.0577 45.5964 71.1758C45.7122 71.0577 45.8283 70.9391 45.944 70.8194ZM45.1403 71.6368C45.0869 71.6903 45.0336 71.7437 44.9802 71.7969C45.0336 71.7437 45.0869 71.6903 45.1403 71.6368ZM44.569 72.2032C44.4684 72.3017 44.3679 72.3998 44.2673 72.4971C44.3679 72.3998 44.4684 72.3017 44.569 72.2032ZM43.8718 72.8751C43.7816 72.9608 43.6924 73.0471 43.6022 73.1319C43.6924 73.0471 43.7816 72.9608 43.8718 72.8751ZM14.5231 74.8838C14.361 74.3093 14.2221 73.7103 14.1061 73.0879C14.2221 73.7102 14.3611 74.3093 14.5231 74.8838ZM43.2282 73.4795C43.1297 73.5707 43.0318 73.6619 42.9333 73.752C43.0318 73.6619 43.1297 73.5707 43.2282 73.4795ZM42.571 74.0792C42.4584 74.1805 42.3466 74.282 42.2341 74.3819C42.3466 74.282 42.4584 74.1805 42.571 74.0792ZM41.8933 74.6807C41.7867 74.7738 41.6804 74.8664 41.5739 74.9581C41.6804 74.8664 41.7867 74.7738 41.8933 74.6807ZM14.8454 75.9073C14.7443 75.6188 14.6502 75.3232 14.5622 75.0206C14.6501 75.3232 14.7444 75.6188 14.8454 75.9073ZM41.1452 75.3233C41.0748 75.3827 41.0056 75.4432 40.9352 75.502C41.0056 75.4432 41.0748 75.3827 41.1452 75.3233ZM40.4597 75.8926C40.3841 75.9544 40.3096 76.0171 40.2341 76.0782C40.3096 76.0171 40.3841 75.9544 40.4597 75.8926ZM15.0651 76.4952C15.0123 76.3617 14.9606 76.2267 14.9108 76.0899C14.9606 76.2267 15.0124 76.3617 15.0651 76.4952ZM39.8102 76.4161C39.739 76.4724 39.6685 76.5293 39.5974 76.585C39.6685 76.5293 39.739 76.4724 39.8102 76.4161ZM15.2409 76.9219C15.2116 76.8541 15.1834 76.7856 15.155 76.7168C15.1834 76.7856 15.2116 76.8541 15.2409 76.9219ZM39.1257 76.9483C39.0488 77.0071 38.973 77.067 38.8962 77.1251C38.973 77.067 39.0488 77.0071 39.1257 76.9483ZM15.4977 77.4825C15.4656 77.4162 15.4334 77.3496 15.402 77.2823C15.4334 77.3496 15.4656 77.4162 15.4977 77.4825ZM15.7751 78.0206C15.7198 77.9189 15.6651 77.8162 15.612 77.712C15.6651 77.8162 15.7198 77.9189 15.7751 78.0206ZM15.989 78.3995C15.9571 78.3455 15.9255 78.2912 15.8942 78.2364C15.9254 78.2912 15.9571 78.3455 15.989 78.3995ZM16.2849 78.8741C16.2569 78.8315 16.2284 78.7892 16.2009 78.7461C16.2284 78.7893 16.2569 78.8315 16.2849 78.8741ZM16.8913 79.71C16.8578 79.6683 16.8246 79.6264 16.7917 79.584C16.8246 79.6264 16.8578 79.6683 16.8913 79.71ZM17.2067 80.085C17.1898 80.0659 17.1728 80.0467 17.1559 80.0274C17.1728 80.0467 17.1898 80.0659 17.2067 80.085ZM17.5339 80.4376C17.5157 80.419 17.4982 80.3997 17.4802 80.3809C17.4982 80.3997 17.5157 80.4189 17.5339 80.4376ZM17.9304 80.8194C17.9028 80.7943 17.8756 80.7687 17.8483 80.7432C17.8756 80.7687 17.9028 80.7943 17.9304 80.8194ZM18.3415 81.1719C18.3084 81.1451 18.2746 81.1191 18.2419 81.0918C18.2746 81.1191 18.3084 81.1451 18.3415 81.1719ZM18.6862 81.4385C18.6596 81.419 18.6335 81.3988 18.6071 81.379C18.6335 81.3988 18.6596 81.419 18.6862 81.4385ZM19.1052 81.7276C19.0868 81.7157 19.0687 81.7035 19.0505 81.6915C19.0687 81.7035 19.0868 81.7157 19.1052 81.7276ZM19.9811 82.2286C19.9546 82.2153 19.9285 82.2011 19.902 82.1876C19.9285 82.2011 19.9546 82.2153 19.9811 82.2286ZM28.488 82.6456C28.9485 82.519 29.4147 82.3716 29.8864 82.2051C29.4147 82.3716 28.9485 82.519 28.488 82.6456ZM20.4597 82.4493C20.4349 82.4387 20.4101 82.4279 20.3854 82.417C20.4101 82.4279 20.4349 82.4387 20.4597 82.4493ZM28.0417 82.7618C27.9888 82.7749 27.9362 82.7882 27.8835 82.8008C27.9362 82.7882 27.9888 82.7749 28.0417 82.7618ZM21.4089 82.795C21.3857 82.7879 21.3626 82.7807 21.3395 82.7735C21.3626 82.7807 21.3857 82.788 21.4089 82.795ZM27.2917 82.9307C27.3417 82.9206 27.3919 82.9101 27.4421 82.8995C27.3919 82.9101 27.3417 82.9206 27.2917 82.9307ZM21.9138 82.9327C21.8939 82.9278 21.874 82.923 21.8542 82.918C21.874 82.923 21.8939 82.9278 21.9138 82.9327ZM26.8698 83.0108C26.8274 83.0182 26.7852 83.0262 26.7429 83.0333C26.7852 83.0262 26.8274 83.0182 26.8698 83.0108ZM26.2409 83.1075C26.2142 83.111 26.1875 83.1148 26.1608 83.1182C26.1875 83.1148 26.2142 83.111 26.2409 83.1075ZM22.9372 83.127C22.9101 83.1233 22.8831 83.1192 22.8561 83.1153C22.8831 83.1192 22.9101 83.1233 22.9372 83.127ZM25.6442 83.1749C25.6289 83.1762 25.6136 83.1774 25.5983 83.1788C25.6136 83.1774 25.6289 83.1762 25.6442 83.1749ZM23.4919 83.1876C23.4586 83.1847 23.4254 83.1819 23.3923 83.1788C23.4254 83.1819 23.4586 83.1847 23.4919 83.1876ZM25.1608 83.209C25.1106 83.2118 25.0605 83.2147 25.0104 83.2168C25.0605 83.2147 25.1106 83.2118 25.1608 83.209ZM23.9899 83.2198C23.9714 83.219 23.9528 83.2177 23.9343 83.2168C23.9528 83.2177 23.9714 83.219 23.9899 83.2198ZM24.4147 83.2276C24.4725 83.2279 24.5305 83.2282 24.5886 83.2276C24.5305 83.2281 24.4725 83.2279 24.4147 83.2276ZM57.6706 2.9063C57.7653 2.89314 57.8598 2.88237 57.9538 2.87115C57.8598 2.88239 57.7653 2.89312 57.6706 2.9063ZM69.4792 11.1172C69.4753 11.1033 69.4724 11.0891 69.4685 11.0753C69.4724 11.0891 69.4753 11.1033 69.4792 11.1172ZM40.0202 13.2315C40.1797 13.079 40.3391 12.9279 40.4987 12.7784C40.3391 12.9279 40.1797 13.079 40.0202 13.2315ZM0.259466 26.1827C0.340268 25.9828 0.419726 25.7822 0.503606 25.5831C0.419726 25.7822 0.340268 25.9828 0.259466 26.1827ZM25.9401 31.0899C25.9688 31.0427 25.9973 30.9954 26.0261 30.9483C25.9973 30.9954 25.9688 31.0427 25.9401 31.0899ZM17.7106 48.0684C17.7963 47.8342 17.883 47.5994 17.9714 47.3643C17.8831 47.5994 17.7963 47.8342 17.7106 48.0684ZM59.7282 52.0655C59.7433 52.0387 59.759 52.0122 59.7741 51.9854C59.759 52.0122 59.7433 52.0387 59.7282 52.0655ZM15.6491 79.4815C15.3641 79.2761 15.0824 79.0675 14.8034 78.8565C15.0824 79.0675 15.3641 79.2761 15.6491 79.4815ZM16.5495 79.2608C16.5257 79.2276 16.5027 79.1937 16.4792 79.1602C16.5027 79.1937 16.5257 79.2276 16.5495 79.2608Z" fill="white"/>
</svg>
