<svg width="90" height="90" viewBox="0 0 90 90" fill="none" xmlns="http://www.w3.org/2000/svg">
<g clip-path="url(#clip0_1144_522)">
<path d="M4.44788 25.4932C4.4427 25.5039 4.43646 25.5146 4.43128 25.5254C6.20633 21.8192 8.49851 18.3397 11.2721 15.2012C11.3135 15.1542 11.3536 15.1063 11.3951 15.0596C11.4713 14.9741 11.5487 14.8896 11.6256 14.8047C11.5839 14.8509 11.5421 14.897 11.5006 14.9434C16.1863 9.71027 21.941 5.7604 28.2321 3.23925C33.0074 1.31488 37.9709 0.26776 42.9205 0.0429646C50.2622 -0.303619 57.7632 1.14524 64.7496 4.5664C64.9812 4.67924 65.2123 4.79329 65.442 4.91015C65.4652 4.92201 65.4882 4.93439 65.5114 4.94629C68.824 6.63836 71.9432 8.74875 74.7828 11.2549C74.7993 11.2694 74.8162 11.2833 74.8326 11.2979C75.0852 11.5214 75.3356 11.7478 75.5836 11.9775C75.6093 12.0013 75.6351 12.025 75.6608 12.0488C75.7624 12.1434 75.8637 12.2384 75.9645 12.334C75.8973 12.2704 75.829 12.2078 75.7614 12.1445C75.9259 12.2983 76.0888 12.4535 76.2506 12.6094C76.1553 12.5174 76.0605 12.425 75.9645 12.334C76.0872 12.4501 76.2086 12.5673 76.3297 12.6846C80.7346 16.9486 84.14 22.0027 86.4518 27.4854C86.4355 27.4468 86.4203 27.4077 86.4039 27.3691C86.423 27.4138 86.4407 27.4592 86.4596 27.5039C86.5459 27.7088 86.6313 27.914 86.7145 28.1201C86.7975 28.3245 86.8788 28.5293 86.9586 28.7344C86.9832 28.7978 87.0076 28.8613 87.0319 28.9248C88.8159 33.572 89.7787 38.3862 89.9684 43.1846C89.9745 43.3316 89.9784 43.4788 89.983 43.626C89.988 43.7946 89.9926 43.9632 89.9957 44.1318C90.1356 51.0395 88.688 58.0556 85.4987 64.6211C83.7624 68.213 81.5411 71.591 78.8639 74.6484C79.29 74.1607 79.7066 73.6617 80.1139 73.1523C79.6748 73.7014 79.2252 74.2387 78.7643 74.7627C78.7977 74.7248 78.8306 74.6864 78.8639 74.6484C78.8215 74.6969 78.7795 74.7457 78.7369 74.7939C78.7237 74.809 78.7102 74.8238 78.6969 74.8389C78.6068 74.9406 78.5166 75.0425 78.4254 75.1436C78.306 75.2762 78.1858 75.408 78.0651 75.5391C73.6265 80.3536 68.267 84.041 62.4254 86.4893C62.5173 86.4507 62.6101 86.4141 62.7018 86.375C62.5951 86.4208 62.4874 86.4639 62.3805 86.5088C62.2702 86.5549 62.1601 86.6013 62.0494 86.6465C57.4017 88.556 52.5715 89.6298 47.7457 89.9209C47.7262 89.9221 47.7067 89.9236 47.6871 89.9248C47.4019 89.9416 47.1168 89.9564 46.8317 89.9678C39.6341 90.2677 32.2901 88.8437 25.4352 85.5254C21.7445 83.7477 18.2792 81.4577 15.1539 78.6885C15.1235 78.6616 15.0934 78.6344 15.0631 78.6074C15.0538 78.5991 15.0441 78.5913 15.0348 78.583C14.8268 78.3978 14.6216 78.21 14.4176 78.0215C14.4188 78.0226 14.4203 78.0233 14.4215 78.0244C14.419 78.0221 14.4162 78.0199 14.4137 78.0176C14.3509 77.9595 14.2876 77.9021 14.2252 77.8437C14.1562 77.779 14.0878 77.7136 14.0192 77.6484C14.0568 77.6841 14.0947 77.7194 14.1324 77.7549C13.9563 77.5892 13.782 77.422 13.609 77.2539C13.745 77.3864 13.8817 77.5179 14.0192 77.6484C13.8792 77.5158 13.7402 77.3823 13.6022 77.248C9.0195 72.7927 5.52204 67.4813 3.22132 61.7217C1.16855 56.6115 0.117768 51.287 0.00549701 45.9951C-0.153843 39.0864 1.27753 32.0661 4.44788 25.4932ZM62.568 4.77344C62.4982 4.77322 62.4283 4.77441 62.358 4.77539C62.4283 4.7744 62.4982 4.77323 62.568 4.77344ZM63.0543 4.78418C63.0105 4.78224 62.9665 4.78171 62.9225 4.78027C62.9665 4.78171 63.0105 4.78225 63.0543 4.78418ZM62.0309 4.78418C61.9718 4.78653 61.9126 4.78881 61.8532 4.79199C61.9125 4.7888 61.9718 4.78654 62.0309 4.78418ZM63.7213 4.83496C63.6622 4.8288 63.6031 4.82162 63.5436 4.8164C63.6031 4.82161 63.6622 4.82881 63.7213 4.83496ZM61.4909 4.81738C61.4324 4.8221 61.3738 4.82556 61.3151 4.83105C61.3738 4.82555 61.4324 4.82211 61.4909 4.81738ZM60.5319 4.92773C60.6966 4.90325 60.8603 4.88194 61.0231 4.86328C60.8603 4.88192 60.6966 4.90327 60.5319 4.92773ZM64.2379 4.90136C64.1591 4.88921 64.0801 4.87758 64.0006 4.86719C64.0801 4.87757 64.1591 4.88922 64.2379 4.90136ZM64.6842 4.97949C64.6271 4.96806 64.5698 4.95773 64.5123 4.94726C64.5698 4.95772 64.6271 4.96807 64.6842 4.97949ZM60.2946 4.96386C60.2114 4.97753 60.1282 4.99269 60.0446 5.00781C60.1282 4.99268 60.2114 4.97755 60.2946 4.96386ZM65.1686 5.08789C65.1136 5.07396 65.0579 5.0628 65.0026 5.0498C65.0579 5.06279 65.1136 5.07396 65.1686 5.08789ZM59.7535 5.0625C59.6581 5.08155 59.5625 5.10214 59.4664 5.12304C59.5625 5.10213 59.6581 5.08156 59.7535 5.0625ZM59.2594 5.16992C59.1475 5.1957 59.0351 5.22175 58.9225 5.25C59.0351 5.22174 59.1475 5.19571 59.2594 5.16992ZM65.736 5.25195C65.693 5.23815 65.6503 5.22315 65.6071 5.20996C65.6503 5.22315 65.693 5.23816 65.736 5.25195ZM58.1998 5.44726C58.3749 5.39595 58.549 5.34732 58.7223 5.30176C58.5489 5.3473 58.3749 5.39597 58.1998 5.44726ZM66.2272 5.42578C66.1683 5.40316 66.1098 5.37982 66.0504 5.3584C66.1098 5.37981 66.1683 5.40316 66.2272 5.42578ZM66.6813 5.61426C66.6142 5.5842 66.5469 5.55477 66.4791 5.52637C66.5469 5.55477 66.6142 5.5842 66.6813 5.61426ZM57.3727 5.708C57.2464 5.7508 57.1198 5.79517 56.9928 5.84082C57.1198 5.79516 57.2464 5.75082 57.3727 5.708ZM67.0875 5.80762C67.035 5.78082 66.9814 5.75619 66.9284 5.73047C66.9814 5.75619 67.035 5.78082 67.0875 5.80762ZM56.8131 5.90625C56.684 5.95386 56.5543 6.00222 56.4244 6.05273C56.5543 6.00222 56.684 5.95387 56.8131 5.90625ZM54.9235 6.69433C55.3969 6.47498 55.8661 6.27379 56.3307 6.09082C55.8661 6.27376 55.3969 6.47499 54.9235 6.69433ZM67.9371 6.2998L67.9196 6.28906C67.9445 6.30536 67.969 6.32233 67.9938 6.33887C67.9747 6.32615 67.9563 6.31238 67.9371 6.2998ZM68.4225 6.64355C68.3781 6.61003 68.3337 6.57664 68.2887 6.54394C68.3337 6.57664 68.3781 6.61003 68.4225 6.64355ZM54.8453 6.73047C54.7038 6.79658 54.5619 6.86428 54.4196 6.93359C54.5619 6.86428 54.7038 6.79658 54.8453 6.73047ZM68.7955 6.94043C68.753 6.90467 68.7098 6.86991 68.6666 6.83496C68.7098 6.86991 68.753 6.90467 68.7955 6.94043ZM70.6569 35.8799C72.4825 29.9303 73.39 24.3848 73.3346 19.6699C67.8283 13.498 60.5629 9.43328 52.7614 7.80273C53.2711 7.51615 53.7781 7.24964 54.2799 7.00195C52.2012 8.02796 50.0485 9.39094 47.8688 11.0586C48.8037 10.343 49.7335 9.68298 50.6549 9.08203C56.9903 14.8748 63.1241 22.6111 68.2877 31.5547L68.8981 32.625C69.5072 33.7076 70.0932 34.7934 70.6569 35.8799ZM10.4977 60.9297C12.0969 51.8001 15.9543 41.531 21.7135 31.5557L22.3346 30.4922C27.9702 20.9772 34.6921 12.8916 41.5455 7.15429C29.9806 8.22012 19.0757 14.5571 12.5924 25.1572L12.0914 26C5.67902 37.1066 5.51121 50.1047 10.4977 60.9297ZM69.151 7.25488C69.1151 7.22137 69.078 7.18914 69.0416 7.15625C69.078 7.18914 69.1151 7.22137 69.151 7.25488ZM69.5885 7.69238C69.5526 7.65428 69.5175 7.61555 69.4811 7.57812C69.5175 7.61555 69.5526 7.65428 69.5885 7.69238ZM69.9196 8.06152C69.878 8.01275 69.8369 7.96381 69.7946 7.91601C69.8369 7.96381 69.878 8.01275 69.9196 8.06152ZM70.234 8.44824C70.1906 8.39195 70.1466 8.33638 70.1022 8.28125C70.1466 8.33638 70.1906 8.39195 70.234 8.44824ZM72.2106 9.15332C72.4802 9.35748 72.7464 9.56506 73.0104 9.77441C72.7464 9.56506 72.4802 9.35748 72.2106 9.15332ZM70.5094 8.82031C70.4762 8.77317 70.4417 8.72707 70.4078 8.68066C70.4417 8.72707 70.4762 8.77317 70.5094 8.82031ZM70.9313 9.4668C70.8761 9.37609 70.8214 9.28565 70.7643 9.19726C70.8214 9.28564 70.8761 9.37609 70.9313 9.4668ZM71.1549 9.84961C71.1138 9.77617 71.0732 9.70289 71.0309 9.63086C71.0732 9.70289 71.1138 9.77618 71.1549 9.84961ZM71.3727 10.2539C71.3444 10.1988 71.3156 10.1442 71.2868 10.0898C71.3156 10.1442 71.3444 10.1988 71.3727 10.2539ZM71.5993 10.7168C71.5747 10.664 71.5492 10.6118 71.5241 10.5596C71.5492 10.6118 71.5747 10.664 71.5993 10.7168ZM71.819 11.2139C71.796 11.1591 71.7722 11.1049 71.7487 11.0508C71.7722 11.1049 71.796 11.1591 71.819 11.2139ZM47.7282 11.167C47.5404 11.3117 47.3528 11.4592 47.1647 11.6084C47.3528 11.4592 47.5404 11.3117 47.7282 11.167ZM72.0807 11.8838C72.0427 11.78 72.0042 11.6771 71.9645 11.5752C72.0042 11.6771 72.0427 11.78 72.0807 11.8838ZM43.567 77.8066C49.8195 72.6694 56.2079 65.116 61.6393 55.9473L62.2262 54.9453C64.3552 51.2577 66.1884 47.5589 67.7174 43.9336C67.5677 44.2886 67.4149 44.6447 67.2594 45.001C65.9712 42.0499 64.4832 39.0561 62.8004 36.0645L62.2262 35.0547C57.0812 26.1433 51.0166 18.6946 45.0016 13.4141C45.6887 12.8109 46.3759 12.236 47.0602 11.6904C40.3841 17.0118 33.5083 25.1254 27.775 35.0557L27.2008 36.0644C20.1851 48.5366 16.5579 61.0473 16.6676 70.334C22.1736 76.5043 29.4385 80.569 37.2389 82.1992C37.9349 81.808 38.6374 81.3806 39.3453 80.9189C33.01 75.1261 26.8762 67.389 21.7125 58.4453L21.1032 57.375C20.4943 56.2928 19.9088 55.2072 19.3453 54.1211C20.2529 51.1635 21.3874 48.1058 22.7428 45.001C24.1757 48.2833 25.8546 51.6191 27.775 54.9453L28.3619 55.9473C33.3785 64.4158 39.2123 71.5055 45.0006 76.5869C44.522 77.007 44.0444 77.4142 43.567 77.8066ZM72.2643 12.4131C72.242 12.3451 72.2209 12.2771 72.1979 12.21C72.2209 12.2771 72.242 12.3451 72.2643 12.4131ZM72.4313 12.9473C72.4104 12.8759 72.3894 12.8049 72.3678 12.7344C72.3894 12.8049 72.4104 12.8759 72.4313 12.9473ZM72.5836 13.5C72.563 13.4204 72.5417 13.3414 72.5201 13.2627C72.5417 13.3414 72.563 13.4204 72.5836 13.5ZM11.6256 14.8047C11.7762 14.6379 11.927 14.4717 12.0797 14.3076C11.9265 14.4719 11.7761 14.6384 11.6256 14.8047ZM72.8688 14.7686C72.8583 14.7141 72.8494 14.6595 72.8385 14.6055C72.8494 14.6595 72.8583 14.7141 72.8688 14.7686ZM72.986 15.4277C72.9762 15.3677 72.9669 15.3077 72.9567 15.248C72.9669 15.3077 72.9762 15.3677 72.986 15.4277ZM73.0787 16.0449C73.0691 15.9747 73.0596 15.9047 73.0494 15.835C73.0596 15.9047 73.0691 15.9747 73.0787 16.0449ZM73.1578 16.6826C73.151 16.6212 73.1436 16.5601 73.1364 16.499C73.1436 16.5601 73.151 16.6212 73.1578 16.6826ZM73.2838 18.1895C73.279 18.1055 73.2757 18.0218 73.2701 17.9385C73.2757 18.0218 73.279 18.1055 73.2838 18.1895ZM73.3141 18.8232C73.3119 18.7635 73.3098 18.704 73.3073 18.6445C73.3098 18.704 73.3119 18.7635 73.3141 18.8232ZM73.3346 19.582C73.3331 19.4801 73.3311 19.3785 73.3287 19.2773C73.3311 19.3785 73.3331 19.4801 73.3346 19.582ZM6.02894 22.5C6.20941 22.1874 6.3949 21.8789 6.58167 21.5723C6.39494 21.8787 6.20935 22.1875 6.02894 22.5C5.85148 22.8074 5.67967 23.1169 5.51038 23.4268C5.67979 23.117 5.85146 22.8074 6.02894 22.5ZM48.4576 82.8447C60.0218 81.7783 70.9251 75.4421 77.4078 64.8428L77.9098 64C84.3219 52.8936 84.4898 39.8952 79.5035 29.0703C77.9044 38.2 74.048 48.4699 68.2887 58.4453C62.5296 68.4204 55.5644 76.895 48.4576 82.8447ZM70.3541 36.8428C70.4377 36.5826 70.5192 36.3231 70.5992 36.0645C70.5192 36.3231 70.4377 36.5826 70.3541 36.8428ZM70.0387 37.8047C70.1135 37.5815 70.1871 37.3589 70.2594 37.1367C70.1871 37.3589 70.1135 37.5815 70.0387 37.8047ZM69.1627 40.2852C69.4194 39.5929 69.6647 38.9046 69.8981 38.2207C69.6647 38.9046 69.4194 39.5929 69.1627 40.2852ZM68.7291 41.4326C68.8274 41.1787 68.923 40.9248 69.0182 40.6719C68.923 40.9248 68.8274 41.1787 68.7291 41.4326ZM68.3033 42.5088C68.4148 42.2315 68.5246 41.9549 68.6325 41.6787C68.5246 41.9549 68.4148 42.2315 68.3033 42.5088ZM67.8453 43.626C67.9569 43.3589 68.0672 43.0924 68.1754 42.8262C68.0672 43.0924 67.9569 43.3589 67.8453 43.626ZM83.443 68.3906C83.6218 68.0964 83.7983 67.7997 83.9713 67.5C84.1463 67.1969 84.3179 66.8924 84.485 66.5869C84.3178 66.8925 84.1464 67.1968 83.9713 67.5L83.443 68.3906ZM16.6686 70.4053C16.6705 70.5444 16.6738 70.6827 16.6774 70.8203C16.6738 70.6827 16.6705 70.5444 16.6686 70.4053ZM16.6852 71.0693C16.6898 71.2048 16.6946 71.3396 16.7008 71.4736C16.6946 71.3396 16.6898 71.2048 16.6852 71.0693ZM16.899 73.7685C16.814 73.1082 16.752 72.4255 16.7135 71.7217C16.752 72.4255 16.8139 73.1082 16.899 73.7685ZM16.9078 73.834C16.9291 73.9955 16.9512 74.1557 16.9752 74.3144C16.9512 74.1557 16.9291 73.9955 16.9078 73.834ZM16.9948 74.4365C17.0171 74.5789 17.0395 74.7203 17.0641 74.8603C17.0395 74.7203 17.0171 74.5789 16.9948 74.4365ZM17.3571 76.2529C17.2582 75.8505 17.1699 75.437 17.0924 75.0127C17.17 75.437 17.2582 75.8504 17.3571 76.2529ZM17.4264 76.5322C17.4464 76.6086 17.4681 76.6842 17.4889 76.7598C17.4681 76.6842 17.4464 76.6086 17.4264 76.5322ZM17.5621 77.0225C17.5938 77.1315 17.6264 77.2395 17.6598 77.3467C17.6264 77.2395 17.5938 77.1314 17.5621 77.0225ZM17.7379 77.5889C17.7651 77.6717 17.7918 77.7542 17.8199 77.8359C17.7918 77.7542 17.7651 77.6717 17.7379 77.5889ZM18.1246 78.6445C18.0472 78.4547 17.9732 78.2613 17.902 78.0644C17.9732 78.2613 18.0472 78.4547 18.1246 78.6445ZM42.2008 78.8926C42.3067 78.8113 42.4112 78.7273 42.5172 78.6445C42.4112 78.7273 42.3067 78.8112 42.2008 78.8926ZM18.1793 78.7783C18.2087 78.8484 18.2399 78.9173 18.2701 78.9863C18.2399 78.9173 18.2087 78.8484 18.1793 78.7783ZM41.5094 79.4131C41.6692 79.2948 41.8288 79.1743 41.9889 79.0527C41.8288 79.1744 41.6692 79.2947 41.5094 79.4131ZM18.401 79.2783C18.4302 79.341 18.46 79.403 18.4899 79.4648C18.46 79.403 18.4301 79.341 18.401 79.2783ZM40.8737 79.875C40.9542 79.8174 41.0342 79.7586 41.1149 79.7002C41.0342 79.7586 40.9542 79.8174 40.8737 79.875ZM18.6198 79.7256C18.6549 79.7943 18.6892 79.8631 18.7252 79.9307C18.6892 79.8631 18.6549 79.7943 18.6198 79.7256ZM40.2047 80.3447C40.2677 80.3014 40.3301 80.2568 40.3932 80.2129C40.3301 80.2568 40.2677 80.3014 40.2047 80.3447ZM18.9293 80.2978C18.9389 80.3144 18.948 80.3312 18.9576 80.3477C18.948 80.3312 18.9389 80.3144 18.9293 80.2978ZM39.5289 80.7998C39.6061 80.7489 39.6831 80.6972 39.7604 80.6455C39.6831 80.6972 39.6061 80.7489 39.5289 80.7998ZM19.2233 80.7832C19.2484 80.8223 19.2759 80.8598 19.3014 80.8984C19.2759 80.8598 19.2484 80.8223 19.2233 80.7832ZM19.485 81.1689C19.5377 81.2439 19.5919 81.3175 19.6461 81.3906C19.5919 81.3175 19.5377 81.2439 19.485 81.1689ZM19.7682 81.5518C19.8159 81.6136 19.8639 81.6749 19.9127 81.7353C19.8639 81.6749 19.8159 81.6136 19.7682 81.5518ZM20.0807 81.9365C20.1249 81.9885 20.1684 82.0409 20.2135 82.0918C20.1684 82.0409 20.1249 81.9885 20.0807 81.9365ZM36.8639 82.4062C36.9495 82.3595 37.0359 82.3134 37.1217 82.2656C37.0359 82.3134 36.9495 82.3595 36.8639 82.4062ZM20.4742 82.374C20.4905 82.391 20.5057 82.409 20.5221 82.4258C20.5057 82.409 20.4905 82.391 20.4742 82.374ZM36.3053 82.7051C36.3707 82.671 36.436 82.6363 36.5016 82.6016C36.436 82.6363 36.3707 82.671 36.3053 82.7051ZM20.8678 82.7627C20.9004 82.793 20.9344 82.8218 20.9674 82.8516C20.9344 82.8218 20.9004 82.793 20.8678 82.7627ZM21.2086 83.0615C21.2519 83.0979 21.2956 83.1334 21.3395 83.1689C21.2956 83.1334 21.2518 83.0979 21.2086 83.0615ZM34.9869 83.3506C35.0298 83.3309 35.073 83.3119 35.1158 83.292C35.073 83.3119 35.0298 83.3309 34.9869 83.3506ZM21.5875 83.3633C21.6311 83.3961 21.6752 83.4279 21.7194 83.46C21.6752 83.4279 21.6311 83.3961 21.5875 83.3633ZM22.5006 83.9717L22.4996 83.9717L22.5006 83.9717ZM34.3541 83.6309C34.4158 83.6045 34.4779 83.5788 34.5397 83.5518C34.4779 83.5788 34.4158 83.6045 34.3541 83.6309ZM21.9762 83.6396C22.0189 83.6684 22.0609 83.6985 22.1041 83.7266C22.0609 83.6985 22.0189 83.6684 21.9762 83.6396ZM33.7574 83.8779C33.8189 83.8535 33.8804 83.8288 33.942 83.8037C33.8804 83.8288 33.8189 83.8535 33.7574 83.8779ZM33.1471 84.1123C33.2262 84.0833 33.305 84.0525 33.3844 84.0225C33.305 84.0525 33.2262 84.0833 33.1471 84.1123ZM22.9 84.1865C22.9523 84.2133 23.0055 84.238 23.0582 84.2637C23.0055 84.238 22.9523 84.2133 22.9 84.1865ZM32.6119 84.3018C32.6333 84.2945 32.6541 84.2856 32.6754 84.2783C32.6541 84.2856 32.6333 84.2945 32.6119 84.3018ZM23.3385 84.3955C23.3887 84.4179 23.4392 84.4395 23.4899 84.4609C23.4392 84.4395 23.3887 84.4179 23.3385 84.3955ZM31.8805 84.5312C31.9395 84.5137 31.9991 84.4977 32.0582 84.4795C31.9991 84.4977 31.9395 84.5137 31.8805 84.5312ZM23.777 84.5762C23.8274 84.5955 23.8776 84.6153 23.9283 84.6338C23.8776 84.6153 23.8274 84.5955 23.777 84.5762ZM31.2926 84.6973C31.3592 84.6797 31.426 84.6619 31.4928 84.6435C31.426 84.6619 31.3592 84.6797 31.2926 84.6973ZM24.2457 84.7422C24.2894 84.7563 24.3327 84.7717 24.3766 84.7852C24.3327 84.7717 24.2894 84.7563 24.2457 84.7422ZM30.733 84.8359C30.8039 84.8196 30.8748 84.8024 30.9459 84.7852C30.8748 84.8024 30.8039 84.8196 30.733 84.8359ZM30.193 84.9512C30.2538 84.9392 30.3145 84.9258 30.3756 84.9131C30.3145 84.9258 30.2538 84.9392 30.193 84.9512ZM24.8317 84.9131C24.8478 84.9172 24.8643 84.9198 24.8805 84.9238C24.8643 84.9198 24.8478 84.9172 24.8317 84.9131ZM25.2799 85.0137C25.3376 85.0254 25.3956 85.0361 25.4537 85.0469C25.3956 85.0361 25.3376 85.0254 25.2799 85.0137ZM25.7477 85.0977C25.8152 85.1082 25.8828 85.1187 25.9508 85.1279C25.8828 85.1187 25.8152 85.1082 25.7477 85.0977ZM28.984 85.1387C29.033 85.133 29.0823 85.1282 29.1315 85.1221C29.0823 85.1282 29.033 85.133 28.984 85.1387ZM26.2242 85.1602C26.2934 85.1677 26.3626 85.1763 26.4323 85.1826C26.3626 85.1763 26.2934 85.1677 26.2242 85.1602ZM28.4489 85.1904C28.4983 85.1867 28.5477 85.182 28.5973 85.1777C28.5477 85.182 28.4983 85.1867 28.4489 85.1904ZM26.8492 85.2119C26.8652 85.2127 26.8811 85.215 26.8971 85.2158C26.8811 85.215 26.8652 85.2127 26.8492 85.2119ZM27.9225 85.2197C27.9683 85.2181 28.0142 85.216 28.0602 85.2139C28.0142 85.216 27.9683 85.2181 27.9225 85.2197ZM27.4889 85.2275C27.4635 85.2276 27.4381 85.2286 27.4127 85.2285C27.4381 85.2286 27.4635 85.2276 27.4889 85.2275ZM15.0006 78.5527C15.0084 78.5596 15.0163 78.5663 15.024 78.5732C15.0163 78.5663 15.0083 78.5596 15.0006 78.5527ZM15.024 78.5732C15.0299 78.5785 15.0358 78.5836 15.0416 78.5889C15.0394 78.5869 15.037 78.585 15.0348 78.583C15.0312 78.5798 15.0277 78.5765 15.024 78.5732ZM57.9137 5.53222C57.7796 5.57367 57.6454 5.61737 57.5104 5.66211C57.6454 5.61735 57.7797 5.57368 57.9137 5.53222ZM74.7008 11.1836C74.4625 10.9747 74.2217 10.7679 73.9782 10.5635C74.2217 10.7679 74.4625 10.9747 74.7008 11.1836ZM80.8678 72.1836C80.8552 72.2003 80.8434 72.2177 80.8307 72.2344C80.8434 72.2177 80.8552 72.2003 80.8678 72.1836Z" fill="white"/>
</g>
<defs>
<clipPath id="clip0_1144_522">
<rect width="90" height="90" fill="white" transform="translate(90 89.9998) rotate(-180)"/>
</clipPath>
</defs>
</svg>
