<svg width="170" height="170" viewBox="0 0 170 170" fill="none" xmlns="http://www.w3.org/2000/svg">
<g clip-path="url(#clip0_140_9)">
<mask id="mask0_140_9" style="mask-type:luminance" maskUnits="userSpaceOnUse" x="0" y="0" width="170" height="170">
<path d="M170 0H0V170H170V0Z" fill="white"/>
</mask>
<g mask="url(#mask0_140_9)">
<path d="M178.585 156.905C174.723 156.912 170.87 156.528 167.085 155.759C163.448 155.013 159.894 153.908 156.476 152.459C153.117 151.036 149.904 149.291 146.883 147.248C143.886 145.218 141.091 142.907 138.532 140.348C135.974 137.788 133.666 134.989 131.641 131.99C130.803 130.747 130.015 129.47 129.28 128.17C127.244 130.879 125.021 133.443 122.627 135.842C119.372 139.099 115.814 142.038 112.001 144.62C108.155 147.22 104.067 149.441 99.793 151.253C95.4449 153.092 90.9254 154.495 86.3008 155.444C76.7511 157.382 66.9101 157.382 57.3604 155.444C52.735 154.496 48.2148 153.092 43.8662 151.253C39.5953 149.441 35.5095 147.22 31.666 144.622C27.8516 142.041 24.2925 139.101 21.0371 135.844C17.783 132.584 14.8474 129.021 12.2695 125.204C9.6713 121.356 7.45316 117.264 5.64649 112.987C3.80937 108.636 2.40608 104.114 1.45801 99.4873C0.487741 94.7194 -0.000415019 89.8666 0.000980421 85.0009C-0.000606973 80.1366 0.487552 75.2841 1.45801 70.5176C2.40595 65.8908 3.8086 61.3689 5.64454 57.0176C7.45435 52.7413 9.67168 48.6499 12.2676 44.7998C14.8467 40.9838 17.7832 37.4218 21.0361 34.1611C24.2915 30.9037 27.8502 27.964 31.6641 25.3828C35.5092 22.7822 39.5977 20.5613 43.8721 18.7509C48.2191 16.9099 52.7385 15.505 57.3633 14.5576C66.9136 12.6192 76.7554 12.6192 86.3057 14.5576C90.9302 15.5052 95.4493 16.9104 99.7959 18.7519C104.07 20.5618 108.158 22.7824 112.003 25.3828C115.815 27.9651 119.372 30.9044 122.628 34.1601C125.882 37.4193 128.819 40.9812 131.396 44.7978C132.799 46.8747 134.09 49.0231 135.268 51.2353L144.342 23.2695L156.381 56.3701L144.381 93.3466C143.91 95.6672 143.671 98.0286 143.668 100.396C143.666 102.755 143.902 105.107 144.373 107.418C144.831 109.661 145.51 111.854 146.4 113.964C147.274 116.03 148.347 118.006 149.605 119.863C150.85 121.718 152.273 123.448 153.854 125.026C155.433 126.608 157.159 128.036 159.01 129.291C160.869 130.547 162.845 131.621 164.91 132.497C167.013 133.388 169.199 134.066 171.437 134.524C173.746 134.998 176.097 135.235 178.454 135.234H183.739L183.99 140.519L183.997 156.91H178.709L178.585 156.905ZM131.31 120.331C130.875 119.303 130.476 118.257 130.11 117.194C129.154 118.923 128.124 120.608 127.02 122.247C124.63 125.784 121.908 129.085 118.892 132.105C115.875 135.124 112.578 137.848 109.044 140.24C105.485 142.648 101.7 144.706 97.7441 146.384C93.7176 148.087 89.5324 149.387 85.25 150.267C84.2833 150.467 83.3107 150.643 82.332 150.795C83.3114 150.641 84.284 150.465 85.25 150.267C89.5324 149.387 93.7176 148.087 97.7441 146.384C101.7 144.706 105.485 142.648 109.044 140.24C112.578 137.848 115.875 135.124 118.892 132.105C121.908 129.085 124.63 125.784 127.02 122.247C128.123 120.61 129.153 118.926 130.11 117.194C130.474 118.256 130.873 119.302 131.31 120.331ZM178.458 140.518H178.601C176.047 140.52 173.499 140.286 170.988 139.817C173.451 140.283 175.951 140.517 178.457 140.517L178.458 140.518ZM71.832 140.518C75.5866 140.518 79.3313 140.139 83.0098 139.388C75.6337 140.886 68.0323 140.886 60.6563 139.388C64.3338 140.139 68.0776 140.517 71.8311 140.517L71.832 140.518ZM61.7139 35.79C58.4913 36.4506 55.3431 37.4299 52.3145 38.7138C49.331 39.9779 46.4768 41.5284 43.793 43.3437C41.1273 45.1491 38.6397 47.2038 36.3633 49.4804C34.0887 51.7585 32.0368 54.249 30.2354 56.917C28.4228 59.6042 26.8746 62.4598 25.6123 65.4453C24.3294 68.4836 23.3502 71.642 22.6885 74.873C22.0079 78.2053 21.6653 81.5979 21.667 84.999C21.6653 88.4014 22.0079 91.7952 22.6885 95.1289C23.35 98.3581 24.3286 101.514 25.6104 104.551C26.8723 107.538 28.4219 110.396 30.2373 113.084C32.039 115.753 34.0912 118.243 36.3662 120.521C38.6414 122.796 41.1278 124.849 43.792 126.653C46.4745 128.469 49.3269 130.021 52.3096 131.285C55.3421 132.569 58.4947 133.548 61.7207 134.208C68.3972 135.564 75.2786 135.564 81.9551 134.208C85.1776 133.548 88.3268 132.569 91.3555 131.285C94.3392 130.023 97.1922 128.472 99.875 126.656C102.542 124.851 105.031 122.796 107.308 120.519C109.582 118.239 111.636 115.749 113.438 113.081C115.251 110.394 116.798 107.538 118.06 104.553C119.344 101.517 120.324 98.3608 120.982 95.1308C121.662 91.7963 122.003 88.402 122.003 84.999C122.003 81.596 121.661 78.2018 120.982 74.8672C120.324 71.6396 119.346 68.4857 118.063 65.4521C116.801 62.465 115.252 59.6071 113.438 56.9189C111.636 54.2508 109.583 51.76 107.308 49.4814C105.032 47.2027 102.544 45.147 99.877 43.3418C97.1941 41.5265 94.3414 39.9766 91.3584 38.7138C88.3269 37.4305 85.1757 36.4503 81.9512 35.7871C78.6211 35.11 75.2313 34.7681 71.833 34.7675C68.434 34.7672 65.0434 35.1097 61.7129 35.789L61.7139 35.79ZM85.2422 19.7314C84.6875 19.6174 84.1306 19.5111 83.5713 19.4111C84.1293 19.5104 84.6869 19.6168 85.2422 19.7314Z" fill="white"/>
</g>
</g>
<defs>
<clipPath id="clip0_140_9">
<rect width="170" height="170" fill="white"/>
</clipPath>
</defs>
</svg>
