<?xml version="1.0" encoding="UTF-8"?><svg id="Layer_1" xmlns="http://www.w3.org/2000/svg" xmlns:xlink="http://www.w3.org/1999/xlink" viewBox="0 0 237.53 157.85"><defs><style>.cls-1{fill:url(#linear-gradient-8);}.cls-2{fill:url(#linear-gradient-7);}.cls-3{fill:url(#linear-gradient-5);}.cls-4{fill:url(#linear-gradient-6);}.cls-5{fill:url(#linear-gradient-9);}.cls-6{fill:url(#linear-gradient-4);}.cls-7{fill:url(#linear-gradient-3);}.cls-8{fill:url(#linear-gradient-2);}.cls-9{fill:url(#linear-gradient);}.cls-10{fill:url(#linear-gradient-10);}.cls-11{fill:url(#linear-gradient-11);}.cls-12{fill:url(#linear-gradient-12);}.cls-13{fill:url(#linear-gradient-13);}.cls-14{fill:#0082fb;}</style><linearGradient id="linear-gradient" x1="133.95" y1="79.09" x2="80.74" y2="148.81" gradientTransform="translate(0 159.85) scale(1 -1)" gradientUnits="userSpaceOnUse"><stop offset="0" stop-color="#0867df"/><stop offset=".45" stop-color="#0668e1"/><stop offset=".86" stop-color="#0064e0"/></linearGradient><linearGradient id="linear-gradient-2" x1="30.36" y1="124.25" x2="66.84" y2="151.95" gradientTransform="translate(0 159.85) scale(1 -1)" gradientUnits="userSpaceOnUse"><stop offset=".13" stop-color="#0064df"/><stop offset="1" stop-color="#0064e0"/></linearGradient><linearGradient id="linear-gradient-3" x1="14.89" y1="83.6" x2="29.53" y2="120.43" gradientTransform="translate(0 159.85) scale(1 -1)" gradientUnits="userSpaceOnUse"><stop offset=".01" stop-color="#0072ec"/><stop offset=".69" stop-color="#0064df"/></linearGradient><linearGradient id="linear-gradient-4" x1="12.91" y1="56.98" x2="14.6" y2="79.47" gradientTransform="translate(0 159.85) scale(1 -1)" gradientUnits="userSpaceOnUse"><stop offset=".07" stop-color="#007cf6"/><stop offset=".99" stop-color="#0072ec"/></linearGradient><linearGradient id="linear-gradient-5" x1="13.84" y1="44.79" x2="12.63" y2="53.81" gradientTransform="translate(0 159.85) scale(1 -1)" gradientUnits="userSpaceOnUse"><stop offset=".07" stop-color="#007ff9"/><stop offset="1" stop-color="#007cf6"/></linearGradient><linearGradient id="linear-gradient-6" x1="13.13" y1="42.39" x2="20.68" y2="26.39" gradientTransform="translate(0 159.85) scale(1 -1)" gradientUnits="userSpaceOnUse"><stop offset=".07" stop-color="#007ff9"/><stop offset="1" stop-color="#0082fb"/></linearGradient><linearGradient id="linear-gradient-7" x1="129.14" y1="119.85" x2="139.12" y2="133.65" gradientTransform="translate(0 159.85) scale(1 -1)" gradientUnits="userSpaceOnUse"><stop offset=".28" stop-color="#007ff8"/><stop offset=".91" stop-color="#0082fb"/></linearGradient><linearGradient id="linear-gradient-8" x1="205" y1="137.77" x2="225.88" y2="60.98" gradientTransform="translate(0 159.85) scale(1 -1)" gradientUnits="userSpaceOnUse"><stop offset="0" stop-color="#0082fb"/><stop offset="1" stop-color="#0081fa"/></linearGradient><linearGradient id="linear-gradient-9" x1="230.92" y1="58.01" x2="217.71" y2="31.32" gradientTransform="translate(0 159.85) scale(1 -1)" gradientUnits="userSpaceOnUse"><stop offset=".06" stop-color="#0081fa"/><stop offset="1" stop-color="#0080f9"/></linearGradient><linearGradient id="linear-gradient-10" x1="207.21" y1="17.2" x2="219.56" y2="25.61" gradientTransform="translate(0 159.85) scale(1 -1)" gradientUnits="userSpaceOnUse"><stop offset="0" stop-color="#027af3"/><stop offset="1" stop-color="#0080f9"/></linearGradient><linearGradient id="linear-gradient-11" x1="187.84" y1="15.56" x2="205" y2="15.56" gradientTransform="translate(0 159.85) scale(1 -1)" gradientUnits="userSpaceOnUse"><stop offset="0" stop-color="#0377ef"/><stop offset="1" stop-color="#0279f1"/></linearGradient><linearGradient id="linear-gradient-12" x1="172.92" y1="24.99" x2="185.26" y2="17.73" gradientTransform="translate(0 159.85) scale(1 -1)" gradientUnits="userSpaceOnUse"><stop offset="0" stop-color="#0471e9"/><stop offset="1" stop-color="#0377ef"/></linearGradient><linearGradient id="linear-gradient-13" x1="135.29" y1="78.52" x2="174.81" y2="28.83" gradientTransform="translate(0 159.85) scale(1 -1)" gradientUnits="userSpaceOnUse"><stop offset=".28" stop-color="#0867df"/><stop offset="1" stop-color="#0471e9"/></linearGradient></defs><path class="cls-9" d="M68.26,0c-.08,0-.15,0-.23,0l-.31,25.8c.07,0,.14,0,.21,0h0c16.98,0,30.15,13.39,58.79,61.62l1.75,2.94.11.19,16.03-24.05-.11-.19c-3.77-6.13-7.4-11.78-10.87-16.93-4.03-5.97-7.88-11.31-11.62-16.07C103.06,9.19,87.21,0,68.26,0Z"/><path class="cls-8" d="M68.03,0c-19.05.1-35.89,12.41-48.05,31.26-.04.06-.07.11-.11.17l22.32,12.15c.04-.05.07-.11.11-.16,7.1-10.69,15.94-17.51,25.41-17.61.07,0,.14,0,.21,0l.33-25.8c-.08,0-.15,0-.23,0Z"/><path class="cls-7" d="M19.98,31.28c-.04.06-.07.11-.11.17-7.99,12.44-13.95,27.7-17.17,44.17-.01.07-.03.14-.04.21l25.08,5.92c.01-.07.03-.14.04-.21,2.68-14.47,7.78-27.89,14.41-37.93.04-.05.07-.11.11-.16l-22.32-12.15Z"/><path class="cls-6" d="M27.78,81.53l-25.07-5.92c-.01.07-.03.14-.04.21C.91,84.89.02,94.09,0,103.31c0,.07,0,.15,0,.22l25.72,2.3c0-.07,0-.15,0-.22-.01-.54-.02-1.08-.02-1.63.01-7.46.7-14.9,2.05-22.24.01-.07.03-.14.04-.21Z"/><path class="cls-3" d="M26.5,113.82c-.46-2.65-.72-5.33-.78-8.02,0-.07,0-.15,0-.22L0,103.28c0,.07,0,.15,0,.22H0C0,109.26.48,114.63,1.41,119.6c.01.07.03.14.04.21l25.09-5.77c-.01-.07-.03-.14-.04-.21Z"/><path class="cls-4" d="M32.36,127.17c-2.8-3.05-4.78-7.46-5.82-13.1-.01-.07-.03-.14-.04-.21l-25.09,5.77c.01.07.03.14.04.21,1.9,9.96,5.62,18.25,10.94,24.53.05.06.09.11.14.17l19.97-17.21c-.05-.05-.1-.11-.15-.16Z"/><path class="cls-14" d="M106.68,55.78c-15.12,23.19-24.28,37.73-24.28,37.73-20.14,31.57-27.11,38.65-38.32,38.65-4.68,0-8.59-1.67-11.58-4.85-.05-.05-.1-.11-.15-.16l-19.97,17.21c.05.06.09.11.14.17,7.35,8.57,17.73,13.33,30.58,13.33,19.43,0,33.4-9.16,58.24-52.58,0,0,10.35-18.29,17.48-30.88-4.41-7.12-8.43-13.29-12.14-18.61Z"/><path class="cls-2" d="M133.63,19.2c-.05.05-.1.11-.15.16-3.97,4.23-7.78,8.95-11.49,13.97,3.74,4.76,7.6,10.11,11.63,16.08,4.75-7.33,9.18-13.27,13.53-17.82.05-.05.1-.11.15-.16l-13.67-12.23Z"/><path class="cls-14" d="M207.03,16.9C196.49,6.25,183.92,0,170.48,0c-14.17,0-26.09,7.77-36.84,19.18-.05.05-.1.11-.15.16l13.68,12.22c.05-.05.1-.11.15-.16,7.08-7.37,13.94-11.05,21.54-11.05h0c8.18,0,15.84,3.85,22.47,10.6.05.05.1.11.16.16l15.72-14.05c-.05-.05-.11-.11-.16-.16Z"/><path class="cls-1" d="M237.51,99.89c-.59-34.2-12.56-64.78-30.32-82.83-.05-.05-.11-.11-.16-.16l-15.72,14.05c.05.05.1.11.16.16,13.36,13.73,22.53,39.26,23.36,68.77,0,.07,0,.15,0,.22h22.68c0-.07,0-.14,0-.22Z"/><path class="cls-5" d="M237.51,100.13c0-.07,0-.15,0-.22h-22.68c0,.07,0,.14,0,.22.04,1.39.05,2.78.05,4.18,0,8.05-1.2,14.55-3.65,19.24-.04.07-.07.14-.11.21l16.91,17.59c.04-.06.08-.13.13-.19,6.14-9.47,9.36-22.63,9.36-38.59,0-.81,0-1.62-.02-2.43Z"/><path class="cls-10" d="M211.25,123.51c-.04.07-.07.14-.11.21-2.11,3.96-5.13,6.6-9.08,7.75l7.71,24.3c1.02-.35,2.01-.74,2.98-1.17.29-.13.58-.26.86-.4.16-.08.33-.16.49-.24,5.1-2.54,9.41-6.29,12.89-11.12.21-.29.42-.59.63-.89.15-.21.29-.43.43-.65.04-.06.08-.13.13-.19l-16.93-17.61Z"/><path class="cls-11" d="M197.15,132.13c-2.58,0-4.87-.38-7.1-1.38l-7.89,24.87c4.44,1.52,9.17,2.2,14.45,2.2,4.86,0,9.33-.73,13.37-2.13l-7.71-24.29c-1.66.5-3.39.74-5.12.73h0Z"/><path class="cls-12" d="M181.35,123.65c-.05-.06-.1-.11-.15-.17l-18.16,18.89c.05.05.1.11.15.16,6.31,6.73,12.34,10.9,19.17,13.19l7.89-24.86c-2.88-1.24-5.67-3.48-8.9-7.22Z"/><path class="cls-13" d="M181.21,123.47c-5.45-6.34-12.19-16.88-22.79-33.94l-13.82-23.04-.11-.19-16.03,24.04.11.19,9.79,16.47c9.49,15.88,17.22,27.37,24.68,35.36.05.05.1.11.15.16l18.16-18.88c-.05-.06-.1-.11-.15-.17Z"/></svg>