<svg width="170" height="170" viewBox="0 0 170 170" fill="none" xmlns="http://www.w3.org/2000/svg">
<g clip-path="url(#clip0_1083_53)">
<mask id="mask0_1083_53" style="mask-type:luminance" maskUnits="userSpaceOnUse" x="0" y="0" width="170" height="170">
<path d="M170 0H0V170H170V0Z" fill="white"/>
</mask>
<g mask="url(#mask0_1083_53)">
<path d="M64.7609 157H-0.00170898V135.528H29.6116C28.79 134.763 28.009 134.004 27.2844 133.276C16.5831 122.494 9.42458 108.952 6.69433 94.3246C3.96407 79.6968 5.78181 64.6252 11.9229 50.9742C18.064 37.3231 28.2592 25.6917 41.2467 17.5187C54.2342 9.34573 69.4438 4.9895 84.9952 4.9895C100.547 4.9895 115.757 9.34573 128.745 17.5187C141.732 25.6917 151.927 37.3231 158.069 50.9742C164.21 64.6252 166.027 79.6968 163.297 94.3246C160.567 108.952 153.408 122.494 142.707 133.276C141.95 134.039 141.167 134.796 140.379 135.526H170V156.996H107.261V131.218C108.441 130.735 109.607 130.221 110.729 129.676C123.18 123.649 132.895 113.479 138.044 101.083C139.342 97.9463 140.331 94.7009 140.998 91.3887C142.414 84.3303 142.37 77.0755 140.868 70.0333C140.118 66.5287 139.006 63.1036 137.548 59.8089C131.753 46.7416 120.867 36.34 107.19 30.8038C103.743 29.4106 100.161 28.3469 96.4949 27.6285C88.9053 26.1599 81.0841 26.1599 73.4946 27.6285C66.2037 29.0559 59.2789 31.8415 53.115 35.8263C47.0407 39.7506 41.8083 44.7499 37.701 50.5536C33.536 56.4482 30.6218 63.066 29.1225 70.0324C27.6237 77.0749 27.5804 84.3294 28.995 91.3878C29.6618 94.7008 30.651 97.9468 31.9497 101.084C34.8741 108.129 39.3011 114.516 44.9495 119.838C50.5978 125.159 57.3438 129.299 64.7579 131.994V156.994L64.7609 157ZM11.9921 92.7285C12.3719 94.9071 12.8577 97.0633 13.4487 99.1961C16.6241 110.619 22.7503 121.098 31.2649 129.672C35.4658 133.908 40.1966 137.634 45.3507 140.766C34.9959 134.475 26.4303 125.834 20.4184 115.613C17.3791 110.444 15.0382 104.927 13.4487 99.1961C12.8597 97.0665 12.3735 94.9106 11.993 92.7294L11.9921 92.7285ZM140.872 54.208C141.488 55.3785 142.063 56.5668 142.597 57.7727C142.065 56.5687 141.491 55.3804 140.874 54.208H140.872ZM116.491 29.4125C117.668 30.0693 118.821 30.7615 119.95 31.4892C118.824 30.7622 117.672 30.07 116.493 29.4125H116.491ZM97.5977 22.5007C100.872 23.1427 104.087 24.0349 107.211 25.1689C104.087 24.0349 100.873 23.1428 97.5997 22.5007H97.5977ZM84.9962 21.2921C89.1449 21.29 93.2837 21.6784 97.3527 22.452C89.6344 20.9796 81.6961 20.9002 73.9472 22.2174C77.5958 21.6005 81.2939 21.2908 84.9992 21.2921H84.9962Z" fill="white"/>
</g>
</g>
<defs>
<clipPath id="clip0_1083_53">
<rect width="170" height="170" fill="white"/>
</clipPath>
</defs>
</svg>
