<svg width="474" height="98" viewBox="0 0 474 98" fill="none" xmlns="http://www.w3.org/2000/svg">
<path d="M65.0576 39.1646H98.5254L71.4502 58.8364L81.792 90.6655L54.7158 70.9937L27.6406 90.6655L33.6865 72.0571L54.6006 70.8081L27.9326 51.4722L27.917 51.5229L10.9062 39.1646H44.374L54.7158 7.33545L65.0576 39.1646ZM156.199 39.1646H189.667L162.592 58.8364L172.934 90.6655L145.857 70.9937L118.782 90.6655L124.828 72.0571L145.742 70.8081L119.074 51.4722L119.059 51.5229L102.048 39.1646H135.516L145.857 7.33447L156.199 39.1646ZM247.342 39.1646H280.81L253.734 58.8364L264.076 90.6655L237 70.9937L209.925 90.6655L215.971 72.0571L236.885 70.8081L210.217 51.4722L210.201 51.5229L193.19 39.1646H226.658L237 7.33447L247.342 39.1646ZM338.483 39.1646H371.951L344.876 58.8364L355.218 90.6655L328.142 70.9937L301.066 90.6655L307.112 72.0571L328.026 70.8081L301.358 51.4722L301.343 51.5229L284.332 39.1646H317.8L328.142 7.33447L338.483 39.1646ZM429.626 39.1646H463.094L436.019 58.8364L446.36 90.6655L419.284 70.9937L392.209 90.6655L398.255 72.0571L419.169 70.8081L392.501 51.4722L392.485 51.5229L375.475 39.1646H408.942L419.284 7.33447L429.626 39.1646Z" fill="url(#paint0_linear_930_34)"/>
<defs>
<linearGradient id="paint0_linear_930_34" x1="10.9062" y1="49" x2="463.094" y2="49" gradientUnits="userSpaceOnUse">
<stop stop-color="#B721FF"/>
<stop offset="0.495192" stop-color="#4C4CEE"/>
<stop offset="0.980769" stop-color="#6A6AFE"/>
</linearGradient>
</defs>
</svg>
